<?xml version="1.0" standalone="no"?>
<!DOCTYPE svg PUBLIC "-//W3C//DTD SVG 20010904//EN"
 "http://www.w3.org/TR/2001/REC-SVG-20010904/DTD/svg10.dtd">
<svg version="1.0" xmlns="http://www.w3.org/2000/svg"
 width="1024.000000pt" height="1024.000000pt" viewBox="0 0 1024.000000 1024.000000"
 preserveAspectRatio="xMidYMid meet">

<g transform="translate(0.000000,1024.000000) scale(0.100000,-0.100000)"
fill="#000000" stroke="none">
<path d="M5055 8364 c-16 -9 -73 -47 -125 -85 -219 -156 -570 -351 -820 -457
-441 -187 -909 -313 -1455 -392 -77 -11 -154 -25 -172 -31 -42 -13 -99 -78
-112 -126 -14 -50 -15 -1791 -1 -1969 38 -481 167 -919 390 -1326 309 -562
831 -1061 1568 -1499 251 -150 604 -319 737 -355 65 -18 96 -11 235 48 475
203 1014 533 1383 847 48 41 86 77 85 80 -7 14 -385 381 -392 381 -5 0 -32
-20 -60 -43 -241 -206 -718 -508 -1056 -670 l-144 -70 -191 96 c-679 342
-1200 753 -1550 1222 -226 304 -405 715 -479 1100 -48 247 -49 272 -53 1098
-2 433 0 787 4 787 22 0 355 64 502 96 615 134 1307 409 1705 677 33 22 65 40
70 40 6 0 60 -33 120 -73 141 -94 326 -195 495 -269 527 -231 1003 -368 1619
-467 l33 -5 -4 -842 c-3 -724 -6 -856 -20 -945 -41 -254 -108 -488 -200 -697
l-52 -120 145 -140 c80 -78 168 -162 196 -188 l52 -47 60 122 c168 341 270
725 302 1127 15 195 14 1967 -2 2012 -18 55 -48 90 -93 110 -23 10 -121 30
-218 44 -508 73 -913 177 -1320 341 -362 146 -664 311 -955 522 -87 64 -110
76 -150 79 -31 2 -57 -2 -77 -13z"/>
<path d="M4775 7129 c-552 -43 -1027 -372 -1269 -879 -143 -300 -181 -656
-104 -985 100 -431 397 -804 801 -1006 446 -224 977 -225 1419 -3 85 43 129
70 226 142 l73 54 52 -48 c84 -79 87 -83 71 -121 -39 -91 -2 -195 101 -291 35
-33 242 -233 459 -445 464 -453 463 -452 626 -452 86 0 101 3 162 32 81 38
142 97 177 172 23 49 26 69 26 156 0 152 -8 165 -289 442 -666 659 -711 702
-756 722 -52 24 -109 26 -165 6 l-40 -14 -67 66 -66 66 33 46 c84 119 160 298
201 476 25 109 28 138 28 320 1 156 -3 220 -18 290 -86 424 -338 789 -700
1016 -290 182 -634 266 -981 238z m375 -403 c240 -52 427 -155 596 -328 220
-226 324 -477 324 -783 0 -558 -388 -998 -960 -1090 -316 -50 -635 23 -875
202 -203 151 -335 330 -409 553 -46 139 -60 243 -53 398 6 160 39 289 106 427
164 335 481 572 845 631 103 17 325 11 426 -10z"/>
<path d="M4750 6565 c-348 -71 -633 -329 -749 -680 -34 -104 -57 -254 -47
-307 9 -50 49 -95 96 -109 47 -14 79 -7 119 27 33 27 41 51 66 180 30 158 92
274 214 394 47 47 112 100 143 119 75 43 204 87 296 100 84 11 128 33 159 81
45 65 18 155 -57 192 -42 21 -143 23 -240 3z m174 -126 c16 -15 1 -21 -101
-39 -54 -10 -123 -27 -153 -38 -195 -69 -361 -201 -479 -382 -18 -28 -21 -30
-16 -10 33 118 210 315 350 387 157 81 357 122 399 82z"/>
</g>
</svg>
