<svg width="1024" height="1024" version="1.1" xmlns="http://www.w3.org/2000/svg" desc="Created with imagetracer.js version 1.2.6" ><path fill="rgb(215,215,215)" stroke="rgb(215,215,215)" stroke-width="1" opacity="1" d="M 505.5 33 Q 517.6 31.4 524.5 35 L 540 45 Q 538.9 47.7 541.5 47 L 549 52 Q 547.9 54.7 550.5 54 Q 580.1 77.4 614.5 96 L 655.5 117 L 707.5 138 L 747.5 150 L 750.5 152 L 754.5 152 L 757.5 154 L 773.5 157 L 776.5 159 L 780.5 159 L 796.5 164 L 801.5 164 L 804.5 166 L 809.5 166 L 828.5 171 L 836.5 171 L 840.5 173 L 847.5 173 L 852.5 175 L 867.5 176 L 874.5 178 L 884.5 178 L 889.5 180 L 901.5 180 L 902.5 181 L 916.5 182 Q 928 185 934 193.5 Q 938.7 198.3 940 206.5 L 940 454.5 L 939 455.5 L 938 485.5 L 936 493.5 L 936 505.5 L 934 513.5 L 934 520.5 L 931 533.5 L 931 539.5 L 929 543.5 L 929 549.5 L 924 567.5 L 924 572.5 L 922 575.5 L 922 579.5 L 917 597.5 L 903 636.5 L 901 638.5 L 901 641.5 L 899 643.5 L 894 657.5 L 880 685.5 L 875.5 691 L 873.5 691 L 831.5 650 L 830 650 Q 831.1 647.3 828.5 648 L 825 643 L 823 643 Q 824.1 640.3 821.5 641 L 817 636.5 L 817 633.5 L 832 602.5 L 846 565.5 L 849 551.5 L 853 540.5 L 853 535.5 L 855 532.5 L 856 522.5 L 858 518.5 L 858 512.5 L 860 508.5 L 860 502.5 L 863 488.5 L 863 480.5 L 865 473.5 L 865 450.5 L 866 449.5 L 866 303.5 L 867 302.5 L 867 247.5 L 861.5 244 L 854.5 244 L 849.5 242 L 840.5 242 L 836.5 240 L 824.5 239 L 810.5 235 L 804.5 235 L 800.5 233 L 791.5 232 L 779.5 228 L 774.5 228 L 757.5 223 L 753.5 223 L 750.5 221 L 746.5 221 L 727.5 214 L 707.5 209 L 679.5 198 L 673.5 197 L 601.5 167 L 595.5 163 L 564.5 149 L 514.5 121 L 510.5 120 L 482.5 137 L 441.5 158 L 428.5 163 L 411.5 172 L 397.5 177 L 395.5 179 L 347.5 198 L 344.5 198 L 299.5 214 L 295.5 214 L 292.5 216 L 278.5 219 L 275.5 221 L 271.5 221 L 260.5 225 L 252.5 226 L 248.5 228 L 243.5 228 L 240.5 230 L 222.5 233 L 218.5 235 L 212.5 235 L 208.5 237 L 203.5 237 L 192.5 240 L 185.5 240 L 180.5 242 L 172.5 242 L 166.5 244 L 160.5 244 L 157 246.5 L 157 436.5 L 158 437.5 L 159 472.5 L 161 480.5 L 162 496.5 L 164 502.5 L 164 509.5 L 166 513.5 L 166 520.5 L 168 523.5 L 169 533.5 L 173 544.5 L 173 548.5 L 175 551.5 L 176 559.5 L 192 601.5 L 192 604.5 L 194 606.5 L 199 619.5 L 225 667.5 L 260 717 Q 262.7 715.9 262 718.5 L 274 733 Q 276.7 731.9 276 734.5 L 283 743 L 285 743 L 285 745 Q 287.7 743.9 287 746.5 L 309.5 768 L 311 768 Q 309.9 770.7 312.5 770 L 358.5 808 L 392.5 831 L 395 831 Q 393.9 833.7 396.5 833 L 406.5 840 L 453.5 866 L 485.5 882 L 494.5 885 L 500.5 889 L 509.5 893 L 512.5 893 L 569.5 866 L 607.5 845 L 650.5 817 L 687 789 Q 685.9 786.3 688.5 787 L 693.5 782 L 695.5 782 L 755 840.5 L 754 844 L 752 844 Q 753.1 846.7 750.5 846 Q 728.2 868.9 701 886 Q 702.1 888.7 699.5 888 L 646.5 925 L 598.5 953 L 533.5 986 L 521.5 991 L 508.5 992 Q 507 989.5 501.5 991 L 474.5 979 L 396.5 937 L 336.5 898 L 293 865 Q 294.1 862.3 291.5 863 L 279 853 Q 280.1 850.3 277.5 851 L 228 803.5 L 226 800.5 Q 137.6 709.9 99 569.5 L 97 556.5 L 95 552.5 L 95 547.5 L 93 543.5 L 93 537.5 L 90 524.5 L 90 517.5 L 88 511.5 L 88 501.5 L 86 496.5 L 86 483.5 L 85 482.5 L 85 472.5 L 84 471.5 L 84 453.5 L 83 452.5 L 83 210.5 L 86 198.5 L 93.5 189 L 106.5 182 L 119.5 181 L 120.5 180 L 133.5 180 L 139.5 178 L 149.5 178 L 156.5 176 L 170.5 175 L 175.5 173 L 183.5 173 L 187.5 171 L 194.5 171 L 203.5 168 L 218.5 166 L 242.5 159 L 247.5 159 L 250.5 157 L 254.5 157 L 269.5 152 L 273.5 152 L 276.5 150 L 295.5 145 L 344.5 127 L 382.5 110 Q 394.3 101.3 409.5 96 L 422.5 87 L 445 75 Q 443.9 72.3 446.5 73 L 475 54 Q 473.9 51.3 476.5 52 L 484 47 Q 482.9 44.3 485.5 45 Q 493 36.5 505.5 33 Z M 507 35 L 495 40 L 460 67 L 408 99 L 359 123 L 319 139 L 270 155 L 214 169 L 170 177 L 164 177 L 158 179 L 148 179 L 140 181 L 112 183 L 98 188 L 87 201 L 85 210 L 85 453 L 86 454 L 86 473 L 87 474 L 87 487 L 89 496 L 89 505 L 91 511 L 91 519 L 94 532 L 94 539 L 96 544 L 96 549 L 101 565 L 103 578 L 115 616 L 117 619 L 117 622 L 129 652 L 143 681 Q 173 739 215 786 Q 214 788 217 787 Q 224 798 234 807 L 236 810 L 251 824 L 252 824 L 254 827 Q 256 826 255 829 L 257 829 L 257 831 L 266 838 Q 268 837 267 840 L 312 877 L 373 920 L 420 948 L 450 964 Q 465 969 477 978 L 502 989 L 507 990 L 518 990 L 536 983 L 622 938 L 687 896 L 725 867 L 742 852 Q 744 853 743 850 L 745 850 L 753 842 L 750 837 Q 747 838 748 835 L 746 835 L 745 832 Q 742 833 743 830 L 741 830 L 741 828 L 740 828 L 696 785 L 692 786 Q 671 806 647 822 L 610 846 L 572 867 L 514 895 L 510 895 L 497 888 L 486 884 L 405 841 L 348 802 L 307 767 L 304 765 Q 254 720 219 662 L 191 607 L 179 575 L 170 545 L 160 497 L 158 470 L 156 460 L 156 245 L 158 243 Q 164 244 167 241 L 174 241 L 199 236 L 204 236 L 209 234 L 214 234 L 265 222 L 313 208 L 351 194 L 354 194 L 356 192 L 364 190 L 386 180 L 389 180 L 391 178 L 405 173 L 446 154 L 481 136 L 511 118 L 517 120 L 522 124 L 561 145 L 598 162 L 604 166 L 685 199 L 688 199 L 711 208 L 721 210 L 758 222 L 771 224 L 810 234 L 815 234 L 819 236 L 825 236 L 842 240 L 866 243 L 868 246 L 868 453 L 867 454 L 867 465 L 866 466 L 866 481 L 864 488 L 863 502 L 859 518 L 859 523 L 849 562 L 836 598 L 819 636 L 874 689 L 876 689 L 898 644 L 909 616 L 921 577 L 932 522 L 933 506 L 935 497 L 935 484 L 937 474 L 937 454 L 938 453 L 938 207 L 934 197 L 930 191 Q 923 185 912 183 L 884 181 L 878 179 L 867 179 L 802 167 L 798 165 L 794 165 L 790 163 L 786 163 L 748 153 L 745 151 L 735 149 L 723 144 L 705 139 L 654 118 L 613 97 L 565 67 L 529 39 L 518 35 L 507 35 Z " /><path fill="rgb(215,215,215)" stroke="rgb(215,215,215)" stroke-width="1" opacity="1" d="M 468.5 227 L 485.5 227 L 486.5 228 L 497.5 228 L 498.5 229 L 510.5 229 L 514.5 231 L 520.5 231 L 534.5 234 L 537.5 236 L 541.5 236 L 544.5 238 L 556.5 241 L 587.5 255 Q 609.5 267.8 628 283 Q 626.9 285.7 629.5 285 L 643.5 299 L 645 299 L 649 306 Q 651.7 304.9 651 307.5 L 663 321.5 L 679 346.5 L 689 366.5 L 689 369.5 L 691 371.5 L 691 374.5 L 698 392.5 L 703 416.5 L 703 425.5 L 705 431.5 L 705 470.5 L 703 476.5 L 703 484.5 L 700 496.5 L 700 501.5 L 698 504.5 L 698 508.5 L 696 511.5 L 693 523.5 L 679 554.5 L 670 569 Q 667.3 567.9 668 570.5 L 664 576.5 L 665 579 L 677 588 Q 675.9 590.7 678.5 590 L 686.5 598 L 694.5 598 L 695.5 597 L 710.5 597 L 722.5 600 L 731 605 Q 729.9 607.7 732.5 607 L 766 639.5 L 775.5 650 L 817.5 691 L 819 691 L 819 692.5 L 836.5 710 L 838 710 L 838 712 Q 840.7 710.9 840 713.5 L 843 715 L 843 717 L 845 717 Q 843.9 719.7 846.5 719 L 852 726 L 853.5 726 L 875 747.5 Q 886.7 760.8 886 786.5 L 885 787.5 L 885 796.5 L 882 805.5 Q 875.8 817.3 865.5 825 L 857.5 830 L 843.5 835 L 825.5 836 L 824.5 835 L 816.5 835 L 806.5 832 L 793.5 825 L 749.5 783 L 748 783 L 748 781 L 746 781 Q 747.1 778.3 744.5 779 L 743 776 L 741 776 L 741 774 L 739 774 Q 740.1 771.3 737.5 772 L 736 769 L 734 769 L 734 767 L 732 767 Q 733.1 764.3 730.5 765 L 727 760 L 725.5 760 L 710.5 746 L 663.5 699 L 662 699 L 662 697 Q 659.3 698.1 660 695.5 L 657 694 L 657 692 L 655 692 Q 656.1 689.3 653.5 690 L 643 674.5 Q 643.6 669.9 641 668.5 L 640 653.5 Q 642.3 652.3 641 647.5 L 632 641 L 630.5 638 L 625.5 634 L 618.5 627 L 614.5 627 L 590.5 643 L 561.5 657 L 549.5 660 L 540.5 664 L 520.5 669 L 514.5 669 L 510.5 671 L 502.5 671 L 492.5 673 L 458.5 673 L 449.5 671 L 439.5 671 L 435.5 669 L 428.5 669 L 388.5 657 L 386.5 655 L 383.5 655 L 381.5 653 L 364.5 646 L 347 636 Q 348.1 633.3 345.5 634 Q 319.7 617.3 300 594.5 Q 284.5 576.5 272 555.5 L 265 542.5 L 256 520.5 L 249 496.5 L 249 491.5 L 247 487.5 L 247 479.5 L 245 471.5 L 244 447.5 L 245 446.5 L 245 429.5 L 246 428.5 L 247 413.5 L 256 378.5 L 270 347.5 L 289 318 Q 291.7 319.1 291 316.5 L 305 299 L 307 299 L 307 297 Q 309.7 298.1 309 295.5 L 312 294 Q 310.9 291.3 313.5 292 Q 319.2 283.8 328 280 Q 326.9 277.3 329.5 278 L 333 276 Q 331.9 273.3 334.5 274 L 359.5 257 L 393.5 241 L 424.5 232 L 435.5 231 L 441.5 229 L 454.5 229 L 455.5 228 L 467.5 228 L 468.5 227 Z M 450 230 L 449 231 L 430 233 L 425 235 L 420 235 L 396 242 L 394 244 L 379 249 L 357 261 L 334 277 Q 331 276 332 279 L 319 289 Q 300 306 285 327 L 267 358 Q 258 374 253 395 L 253 399 L 250 408 L 250 413 L 248 418 L 247 440 L 246 441 L 246 458 L 247 459 L 248 482 L 253 505 L 260 526 L 276 559 L 291 581 L 309 601 L 311 604 Q 339 633 380 651 L 413 663 L 417 663 L 429 667 L 447 669 L 448 670 L 458 670 L 459 671 L 505 670 L 538 663 L 571 651 Q 595 640 616 625 L 620 626 Q 622 625 621 628 L 623 628 L 623 630 L 638 642 L 642 647 L 642 665 L 646 677 L 651 685 L 676 709 L 677 709 L 679 712 Q 681 711 680 714 L 720 752 Q 722 751 721 754 L 723 754 L 753 784 Q 755 783 754 786 L 756 786 L 793 822 L 810 831 L 825 834 L 837 834 L 851 831 L 867 822 L 872 817 Q 871 814 874 815 L 881 803 L 884 790 Q 886 761 872 748 L 870 745 L 863 739 L 862 736 Q 859 737 860 734 L 858 734 L 858 732 L 857 732 L 792 667 Q 789 668 790 665 L 789 665 L 734 610 Q 731 611 732 608 L 720 601 L 713 599 L 692 599 L 691 600 Q 685 600 683 596 Q 680 597 681 594 L 673 587 Q 670 588 671 585 L 662 578 L 662 576 L 680 549 L 690 527 L 690 524 L 692 522 L 699 498 L 699 492 L 702 479 L 702 471 L 703 470 L 703 434 L 702 433 L 702 422 L 697 396 L 690 375 Q 674 335 648 307 Q 649 304 646 305 L 646 304 L 634 291 Q 631 292 632 289 L 611 272 L 586 256 L 549 240 L 522 233 L 505 231 L 504 230 L 450 230 Z " /><path fill="rgb(215,215,215)" stroke="rgb(215,215,215)" stroke-width="1" opacity="1" d="M 457.5 276 L 490.5 276 L 491.5 277 L 514.5 280 L 539.5 288 Q 580.3 304.7 607 335.5 L 614 346 Q 616.7 344.9 616 347.5 L 630 368.5 L 642 396.5 L 648 427.5 L 649 461.5 L 644 490.5 L 633 520.5 Q 618 550.5 594.5 572 Q 569.9 595.4 534.5 608 L 500.5 617 Q 494.3 615.3 492.5 618 L 456.5 618 L 429.5 613 L 396.5 601 L 372.5 587 L 357.5 575 L 341 558.5 Q 320.2 535.3 308 503.5 L 303 485.5 L 303 480.5 L 300 468.5 L 299 437.5 L 300 436.5 L 300 424.5 L 303 408.5 L 312 380.5 Q 327.7 345.2 354.5 321 L 366 313 Q 364.9 310.3 367.5 311 L 384.5 299 L 409.5 287 L 432.5 280 L 437.5 280 L 449.5 277 L 456.5 277 L 457.5 276 Z M 461 278 L 460 279 L 449 279 L 438 282 L 433 282 L 405 291 L 382 303 L 351 326 L 339 341 Q 340 343 337 342 L 322 365 L 311 388 L 308 401 L 306 404 L 306 409 L 304 412 L 304 418 L 302 424 L 302 434 L 301 435 L 301 463 Q 304 464 302 471 L 304 476 L 304 483 Q 307 485 306 491 L 311 504 L 311 507 L 323 531 L 334 548 L 352 567 Q 354 566 353 569 L 375 586 L 399 600 L 423 609 L 453 616 L 495 616 Q 499 613 508 614 L 511 612 L 516 612 L 523 609 L 527 609 L 543 603 L 560 595 L 574 586 Q 576 587 575 584 L 590 574 Q 613 553 629 525 L 638 504 Q 638 497 641 495 L 641 491 L 643 488 L 643 483 L 646 471 L 646 462 L 647 461 L 647 439 L 646 438 L 645 418 L 636 386 L 624 362 Q 614 345 601 333 Q 602 330 599 331 L 599 329 L 596 328 Q 597 325 594 326 L 594 324 L 561 300 L 532 287 L 516 282 L 505 281 L 499 279 L 461 278 Z " /><path fill="rgb(215,215,215)" stroke="rgb(215,215,215)" stroke-width="1" opacity="1" d="M 459.5 304 L 467.5 304 Q 468.9 306.6 473.5 306 L 483 313.5 Q 487.8 318.7 486 330.5 L 479.5 340 L 471.5 344 L 457.5 345 L 433.5 352 L 423.5 357 L 404 371 L 404 373 L 402 373 Q 403.1 375.7 400.5 375 L 397 380 Q 394.3 378.9 395 381.5 Q 384.2 393.7 378 410.5 L 374 424.5 L 372 444.5 Q 369 452 362.5 456 L 355.5 459 L 345.5 459 Q 337.5 456.5 333 450.5 Q 326.8 443.2 329 427.5 L 333 406.5 L 340 387.5 L 347 374.5 L 359 357 Q 361.7 358.1 361 355.5 Q 377.1 336.1 399.5 323 L 425.5 311 L 445.5 306 L 452.5 306 L 459.5 304 Z M 463 306 L 462 307 L 451 307 L 436 310 L 416 317 L 391 331 L 373 347 Q 370 346 371 349 L 366 353 Q 367 355 364 354 L 351 372 L 341 390 L 332 418 Q 334 424 331 426 L 331 442 L 334 449 Q 338 455 347 457 L 355 457 L 364 453 Q 369 449 371 442 L 371 433 L 375 414 Q 381 395 392 382 Q 408 362 432 351 L 454 344 L 472 342 L 478 339 L 482 335 L 485 326 Q 484 317 480 312 L 472 307 L 463 306 Z " /><path fill="rgb(215,215,215)" stroke="rgb(215,215,215)" stroke-width="1" opacity="1" d="M 395.5 333 L 402 334 Q 401 337 404 336 L 404 338.5 Q 406.2 339.7 405 344.5 Q 403.6 350.6 398.5 353 L 393.5 354 L 389 350.5 L 388 340.5 L 391 335 L 395.5 333 Z M 395 335 L 390 341 Q 388 350 394 352 L 400 350 L 403 346 L 403 339 Q 402 334 395 335 Z " /><path fill="rgb(0,0,0)" stroke="rgb(0,0,0)" stroke-width="1" opacity="0" d="M 0 0 L 145 0.5 Q 71.1 6.1 35 49.5 Q 18.9 68.4 10 94.5 L 3 122.5 L 0.5 145 L 0 0 Z " /><path fill="rgb(0,0,0)" stroke="rgb(0,0,0)" stroke-width="1" opacity="0" d="M 879.5 0 L 1024 0 L 1024 144.5 L 1023 144.5 L 1023 135.5 L 1019 112.5 L 1015 97.5 L 1008 79.5 Q 995.6 52.9 974.5 35 Q 955.6 18.9 929.5 10 L 901.5 3 L 889.5 2 L 888.5 1 L 879.5 1 L 879.5 0 Z " /><path fill="rgb(0,0,0)" stroke="rgb(0,0,0)" stroke-width="1" opacity="0" d="M 0.5 879 Q 6.1 952.9 49.5 989 Q 68.4 1005.1 94.5 1014 L 122.5 1021 L 145 1023.5 L 0 1024 L 0.5 879 Z " /><path fill="rgb(0,0,0)" stroke="rgb(0,0,0)" stroke-width="1" opacity="0" d="M 1023.5 879 L 1024 1024 L 879 1023.5 Q 952.9 1017.9 989 974.5 Q 1005.1 955.6 1014 929.5 L 1021 901.5 L 1023.5 879 Z " /><path fill="rgb(254,254,254)" stroke="rgb(254,254,254)" stroke-width="1" opacity="0.996078431372549" d="M 508.5 31 L 521.5 32 L 534 38 Q 532.9 40.7 535.5 40 L 537 43 L 549 50 Q 547.9 52.7 550.5 52 L 553 53 L 553 55 L 556 55 L 558 59 L 560.5 59 L 572.5 68 L 576 69 Q 574.9 71.7 577.5 71 L 586 76 Q 584.8 79 588.5 78 Q 599.1 87.2 613 92 Q 611.8 95 615.5 94 L 639 106 Q 637.8 109 641.5 108 L 654.5 115 L 657.5 115 L 666.5 120 L 670 120 Q 668.7 123.3 673.5 122 L 687.5 129 L 705 134 Q 703.7 137.3 708.5 136 L 718.5 139 L 720.5 141 L 726 141 Q 724.6 144.7 730.5 143 L 740.5 146 L 742.5 148 L 746.5 148 L 748.5 150 L 764.5 153 L 767.5 155 L 772.5 155 L 774.5 157 L 779.5 157 L 787.5 160 L 791.5 160 L 794.5 162 L 800.5 162 L 802.5 164 L 812.5 165 L 816.5 167 L 822.5 167 L 824.5 169 L 833.5 169 L 835 170.5 L 828.5 171 L 809.5 166 L 804.5 166 L 801.5 164 L 796.5 164 L 780.5 159 L 776.5 159 L 773.5 157 L 757.5 154 L 754.5 152 L 750.5 152 L 747.5 150 L 707.5 138 L 671.5 124 L 669.5 122 L 655.5 117 L 631.5 105 L 598.5 87 L 549 54 Q 550.1 51.3 547.5 52 L 540 47 Q 541.1 44.3 538.5 45 Q 533.1 38.4 524.5 35 Q 517.6 31.4 505.5 33 L 495.5 37 L 484 45 Q 485.1 47.7 482.5 47 L 475 52 Q 476.1 54.7 473.5 54 L 448.5 72 L 445 73 Q 446.1 75.7 443.5 75 L 409.5 96 Q 394.3 101.3 382.5 110 L 344.5 127 L 295.5 145 L 276.5 150 L 273.5 152 L 269.5 152 L 251.5 157 L 252.5 155 L 257.5 155 L 259.5 153 L 263.5 153 L 277.5 148 L 281.5 148 L 283.5 146 L 293.5 143 L 298 143 Q 296.6 139.3 302.5 141 L 305.5 139 L 317.5 136 L 319.5 134 L 322.5 134 L 332.5 129 L 335.5 129 L 337.5 127 L 340.5 127 L 350.5 122 L 354 122 Q 352.7 118.7 357.5 120 L 369.5 113 L 373 113 Q 371.7 109.7 376.5 111 L 422 87 Q 420.8 84 424.5 85 L 431.5 80 L 434 80 Q 432.8 77 436.5 78 L 445 73 L 445 71 L 448 71 Q 446.9 68.3 449.5 69 L 456.5 64 L 459 64 Q 457.9 61.3 460.5 62 Q 461.8 58.2 466 59 L 466 57 L 468 57 Q 466.9 54.3 469.5 55 L 475 52 Q 473.9 49.3 476.5 50 L 487 43 Q 485.9 40.3 488.5 41 Q 489.8 37.2 494 38 Q 492.9 35.3 495.5 36 L 502.5 32 Q 507.2 33.2 508.5 31 Z " /><path fill="rgb(254,254,254)" stroke="rgb(254,254,254)" stroke-width="1" opacity="0.996078431372549" d="M 510.5 120 L 514.5 121 L 541.5 137 Q 556.3 142.2 568 150.5 L 565.5 151 L 562 150 Q 563.3 147 559.5 148 Q 558.4 145.3 555 146 Q 556.3 143 552.5 144 L 545 141 Q 546.3 138 542.5 139 Q 540.6 135.4 536 136 L 536 134 L 532 134 L 532 132 Q 527.9 133.3 529 130 L 525.5 130 L 520 127 L 520 125 L 516 125 Q 517.3 122 513.5 123 L 509.5 122 L 507 123 L 507 125 L 504 125 Q 505.1 127.7 502.5 127 L 495 130 Q 496.3 133 492.5 132 Q 491.4 134.8 488 134 Q 489.3 137 485.5 136 L 483 137 L 483 139 L 479 139 Q 480.3 142 476.5 141 L 470.5 144 L 471.5 142 L 482.5 137 L 510.5 120 Z " /><path fill="rgb(254,254,254)" stroke="rgb(254,254,254)" stroke-width="1" opacity="0.996078431372549" d="M 467.5 144 Q 470.1 143.3 469 146 L 466 146 Q 467.3 149 463.5 148 Q 462.1 151.6 456.5 151 L 457.5 149 L 467.5 144 Z " /><path fill="rgb(254,254,254)" stroke="rgb(254,254,254)" stroke-width="1" opacity="0.996078431372549" d="M 453.5 151 Q 456.1 150.3 455 153 L 448 155 Q 449.3 158 445.5 157 L 432.5 164 L 427 165 Q 428.3 168.3 423.5 167 L 417.5 171 L 412.5 172 L 413.5 170 L 441.5 158 L 453.5 151 Z " /><path fill="rgb(254,254,254)" stroke="rgb(254,254,254)" stroke-width="1" opacity="0.996078431372549" d="M 569 151 L 582 157.5 L 579.5 158 L 576 157 Q 577.3 154 573.5 155 Q 572.4 152.3 569 153 L 569 151 Z " /><path fill="rgb(254,254,254)" stroke="rgb(254,254,254)" stroke-width="1" opacity="0.996078431372549" d="M 244.5 157 L 250 157.5 L 226.5 164 L 222.5 164 L 218.5 166 L 213.5 166 L 194.5 171 L 189.5 171 L 190.5 169 L 198.5 169 L 200.5 167 L 205.5 167 L 214.5 164 L 220.5 164 L 222.5 162 Q 228.5 163 230.5 160 L 236.5 160 L 244.5 157 Z " /><path fill="rgb(254,254,254)" stroke="rgb(254,254,254)" stroke-width="1" opacity="0.996078431372549" d="M 583 158 L 645 185.5 L 641.5 186 L 632.5 181 L 629.5 181 L 627.5 179 L 613 174 Q 614.3 170.7 609.5 172 L 596.5 165 L 587 162 L 587 160 Q 581.8 161.7 583 158 Z " /><path fill="rgb(254,254,254)" stroke="rgb(254,254,254)" stroke-width="1" opacity="0.996078431372549" d="M 178.5 171 L 187 171.5 Q 183.2 174.2 175.5 173 L 170.5 175 L 142.5 178 L 143.5 176 L 153.5 176 L 157.5 174 L 165.5 174 L 178.5 171 Z " /><path fill="rgb(254,254,254)" stroke="rgb(254,254,254)" stroke-width="1" opacity="0.996078431372549" d="M 837.5 171 L 844.5 171 L 856.5 174 L 866.5 174 L 870.5 176 Q 878.7 174.3 882 177.5 L 874.5 178 L 867.5 176 L 852.5 175 L 847.5 173 L 840.5 173 L 837.5 172 L 837.5 171 Z " /><path fill="rgb(254,254,254)" stroke="rgb(254,254,254)" stroke-width="1" opacity="0.996078431372549" d="M 409.5 172 Q 412.1 171.3 411 174 L 396.5 179 L 397.5 177 L 409.5 172 Z " /><path fill="rgb(254,254,254)" stroke="rgb(254,254,254)" stroke-width="1" opacity="0.996078431372549" d="M 125.5 178 L 139 178.5 L 133.5 180 L 120.5 180 L 119.5 181 L 106.5 182 Q 96.1 185.1 90 192.5 L 86 198.5 L 83 210.5 L 83 452.5 L 84 453.5 L 84 471.5 L 85 472.5 L 85 482.5 L 86 483.5 L 86 496.5 L 88 501.5 L 88 511.5 L 90 517.5 L 90 524.5 L 91 525.5 L 93 542.5 L 91 541.5 L 91 534.5 L 88 522.5 L 88 513.5 L 86 509.5 L 86 499.5 L 84 490.5 L 84 474.5 L 82 464.5 L 82 449.5 L 81 448.5 L 81 217.5 L 82 216.5 L 82 205.5 L 86 195 Q 89 196.3 88 192.5 Q 91.7 186.8 98 185 Q 96.7 181.7 101.5 183 L 103.5 181 L 114.5 179 L 124.5 179 L 125.5 178 Z " /><path fill="rgb(254,254,254)" stroke="rgb(254,254,254)" stroke-width="1" opacity="0.996078431372549" d="M 885.5 178 L 896.5 178 L 897.5 179 L 914.5 180 L 924 183 Q 922.7 186.3 927.5 185 L 933 192 Q 935.7 190.9 935 193.5 L 936 196 Q 939 194.8 938 198.5 L 942 206.5 L 942 453.5 L 940 462.5 L 940 484.5 L 938 487.5 L 938 503.5 L 936.5 505 L 936 493.5 L 938 485.5 L 938 470.5 L 939 469.5 L 939 455.5 L 940 454.5 L 940 206.5 L 938 199.5 L 927.5 187 L 916.5 182 L 902.5 181 L 901.5 180 L 889.5 180 L 885.5 179 L 885.5 178 Z " /><path fill="rgb(254,254,254)" stroke="rgb(254,254,254)" stroke-width="1" opacity="0.996078431372549" d="M 393.5 179 Q 396.1 178.3 395 181 L 391.5 181 L 389.5 183 L 379.5 186 L 380.5 184 L 393.5 179 Z " /><path fill="rgb(254,254,254)" stroke="rgb(254,254,254)" stroke-width="1" opacity="0.996078431372549" d="M 375.5 186 Q 379.3 185 378 188 L 374.5 188 L 367.5 192 L 361.5 193 L 349.5 199 L 342.5 200 L 335.5 204 L 332.5 204 L 326.5 207 L 322 207 Q 323.4 211 316.5 209 Q 310.8 213.8 300.5 214 L 300.5 213 L 327.5 205 L 344.5 198 L 347.5 198 L 373.5 188 L 375.5 186 Z " /><path fill="rgb(254,254,254)" stroke="rgb(254,254,254)" stroke-width="1" opacity="0.996078431372549" d="M 646 186 L 701.5 207 L 746 220.5 L 742.5 221 L 731.5 218 L 729.5 216 L 725.5 216 L 723.5 214 L 714.5 213 L 712.5 211 L 708.5 211 L 706.5 209 L 702.5 209 L 700.5 207 L 693.5 206 L 691.5 204 L 688.5 204 L 681.5 200 L 674.5 199 L 662.5 193 L 656.5 192 L 654.5 190 L 650 190 L 650 188 Q 644.8 189.7 646 186 Z " /><path fill="rgb(254,254,254)" stroke="rgb(254,254,254)" stroke-width="1" opacity="0.996078431372549" d="M 295.5 214 L 299 214.5 L 291.5 218 L 287.5 218 L 285.5 220 L 276.5 221 L 276.5 220 L 292.5 216 L 295.5 214 Z " /><path fill="rgb(254,254,254)" stroke="rgb(254,254,254)" stroke-width="1" opacity="0.996078431372549" d="M 271.5 221 L 275 221.5 Q 273.4 224.5 268 223 Q 269.4 227 262.5 225 L 260.5 227 L 249.5 228 L 247.5 230 L 241.5 230 L 241.5 229 L 260.5 225 L 271.5 221 Z " /><path fill="rgb(254,254,254)" stroke="rgb(254,254,254)" stroke-width="1" opacity="0.996078431372549" d="M 747.5 221 L 753 222.5 L 748.5 223 L 747.5 221 Z " /><path fill="rgb(254,254,254)" stroke="rgb(254,254,254)" stroke-width="1" opacity="0.996078431372549" d="M 754.5 223 L 774 227.5 L 768.5 228 Q 767.2 225.7 762.5 227 L 759.5 225 L 755.5 225 L 754.5 223 Z " /><path fill="rgb(254,254,254)" stroke="rgb(254,254,254)" stroke-width="1" opacity="0.996078431372549" d="M 466.5 226 L 485 226.5 L 441.5 229 L 435.5 231 L 424.5 232 L 413.5 236 L 408.5 236 L 372.5 250 L 333 274 Q 334.1 276.7 331.5 276 L 328 278 Q 329.1 280.7 326.5 280 L 312 292 Q 313.1 294.7 310.5 294 L 309 297 L 307 297 L 307 299 Q 304.3 297.9 305 300.5 L 291 318 Q 288.3 316.9 289 319.5 L 281 329.5 L 270.5 347 L 270 344.5 L 273 339 Q 276 340.3 275 336.5 L 282 325 Q 285 326.3 284 322.5 L 287 318 L 289 318 L 289 316 Q 291.7 317.1 291 314.5 L 296 307 L 299 305.5 L 301 302.5 L 303 299 Q 305.7 300.1 305 297.5 L 312 292 L 312 290 L 314 290 Q 312.9 287.3 315.5 288 L 319 286 L 320.5 283 L 325.5 279 L 331 276 L 331 274 L 333 274 Q 331.9 271.3 334.5 272 L 340 269 Q 338.9 266.3 341.5 267 L 351.5 260 L 354 260 Q 352.9 257.3 355.5 258 L 363 255 Q 361.8 252 365.5 253 L 377.5 246 L 389.5 241 L 392.5 241 L 394.5 239 L 399 239 Q 397.7 235.7 402.5 237 L 410.5 234 L 415.5 234 L 417.5 232 L 423.5 232 L 425.5 230 L 431.5 230 L 445.5 227 L 465.5 227 L 466.5 226 Z " /><path fill="rgb(254,254,254)" stroke="rgb(254,254,254)" stroke-width="1" opacity="0.996078431372549" d="M 486.5 227 L 506.5 227 L 512.5 229 L 524.5 230 L 526 231.5 L 521.5 232 Q 520 229.5 514.5 231 L 510.5 229 L 486.5 228 L 486.5 227 Z " /><path fill="rgb(254,254,254)" stroke="rgb(254,254,254)" stroke-width="1" opacity="0.996078431372549" d="M 775.5 228 L 800.5 233 L 804.5 235 L 810.5 235 L 814.5 237 L 819.5 237 L 824.5 239 L 836.5 240 L 840 241.5 L 832.5 242 Q 831 239.5 825.5 241 L 821.5 239 L 814.5 239 L 812.5 237 Q 805.8 238.2 803.5 235 L 792.5 234 Q 790.5 231 784.5 232 L 782.5 230 L 776.5 230 L 775.5 228 Z " /><path fill="rgb(254,254,254)" stroke="rgb(254,254,254)" stroke-width="1" opacity="0.996078431372549" d="M 236.5 230 L 240 230.5 L 230.5 234 L 219.5 235 L 219.5 234 L 236.5 230 Z " /><path fill="rgb(254,254,254)" stroke="rgb(254,254,254)" stroke-width="1" opacity="0.996078431372549" d="M 527.5 232 Q 532.8 230.8 534 233.5 L 530.5 234 L 527.5 233 L 527.5 232 Z " /><path fill="rgb(254,254,254)" stroke="rgb(254,254,254)" stroke-width="1" opacity="0.996078431372549" d="M 535.5 234 L 550.5 237 L 552.5 239 L 555.5 239 L 557.5 241 L 568.5 244 Q 574.7 249.4 584 251 L 584 253 L 588 253 Q 586.8 256 590.5 255 L 607 265 Q 605.9 267.7 608.5 267 L 628 281 L 628 283 L 630 283 Q 628.9 285.7 631.5 285 L 635 290 L 641 293 L 643.5 297 L 648 300.5 L 649 304 L 651 304 L 651 306 Q 653.7 304.9 653 307.5 L 658.5 314 Q 660.8 313.3 660 315.5 L 663 321 Q 665.7 319.9 665 322.5 Q 669.6 325.8 670 332 Q 672.7 330.9 672 333.5 L 679 343.5 L 679 346 Q 682 344.8 681 348.5 Q 684.5 350.7 684 356 L 686 356 L 686 360 Q 689 358.8 688 362.5 Q 691.6 364.4 691 370.5 L 689 369.5 L 689 366.5 L 679 346.5 Q 666.3 324.3 651 306 Q 648.3 307.1 649 304.5 L 645 299 L 628 285 Q 629.1 282.3 626.5 283 L 609.5 269 L 587.5 255 L 556.5 241 L 544.5 238 L 541.5 236 L 537.5 236 L 535.5 234 Z " /><path fill="rgb(254,254,254)" stroke="rgb(254,254,254)" stroke-width="1" opacity="0.996078431372549" d="M 212.5 235 L 218 235.5 L 216.5 237 Q 209.8 235.8 207.5 239 L 200.5 239 L 197.5 241 L 181.5 242 L 181.5 241 L 208.5 237 L 212.5 235 Z " /><path fill="rgb(254,254,254)" stroke="rgb(254,254,254)" stroke-width="1" opacity="0.996078431372549" d="M 172.5 242 L 179 242.5 L 177.5 244 L 168.5 244 Q 165.7 247.4 159 246 L 158.5 456 L 158 437.5 L 157 436.5 L 157 246.5 L 160.5 244 L 166.5 244 L 172.5 242 Z " /><path fill="rgb(254,254,254)" stroke="rgb(254,254,254)" stroke-width="1" opacity="0.996078431372549" d="M 841.5 242 Q 849.5 241 854 243.5 L 843.5 244 L 841.5 242 Z " /><path fill="rgb(254,254,254)" stroke="rgb(254,254,254)" stroke-width="1" opacity="0.996078431372549" d="M 855.5 244 Q 864.2 242.8 867 247.5 L 865.5 450 L 865 246 L 857.5 246 L 855.5 244 Z " /><path fill="rgb(254,254,254)" stroke="rgb(254,254,254)" stroke-width="1" opacity="0.996078431372549" d="M 460.5 278 L 498.5 279 L 504.5 281 L 515.5 282 L 531.5 287 L 560.5 300 L 594 324 L 594 326 Q 596.7 324.9 596 327.5 L 599 329 L 599 331 Q 601.7 329.9 601 332.5 L 618 352.5 L 634 380.5 L 634 383.5 L 636 385.5 L 641 400.5 L 643 413.5 L 645 417.5 L 646 436.5 L 645 436.5 L 644 419.5 L 642 416.5 L 641 405.5 Q 637.8 404.3 639 398.5 L 627 369.5 L 618 356.5 L 618 354 Q 615.3 355.1 616 352.5 L 613 347 L 611 347 L 611 345 Q 608.3 346.1 609 343.5 L 605.5 339 Q 602.9 339.7 604 337 L 602 337 L 602 335.5 L 594 326 L 588 323 L 588 321 L 586 321 Q 587.1 318.3 584.5 319 L 576.5 312 L 567 307 Q 568.3 304 564.5 305 L 543.5 293 L 526.5 288 L 524.5 286 L 520.5 286 L 518.5 284 L 505.5 283 L 500.5 281 L 489.5 281 L 485.5 279 L 464.5 279 L 463.5 280 L 445.5 281 L 441.5 283 L 429.5 284 L 429.5 283 L 448.5 279 L 459.5 279 L 460.5 278 Z " /><path fill="rgb(254,254,254)" stroke="rgb(254,254,254)" stroke-width="1" opacity="0.996078431372549" d="M 424.5 284 L 428 284.5 L 426.5 286 L 422.5 286 L 420.5 288 L 408.5 291 L 397.5 297 L 392 298 Q 393.3 301 389.5 300 Q 388.4 302.8 385 302 Q 386.1 304.7 383.5 304 L 380 305 Q 381.1 307.7 378.5 307 L 372.5 312 L 370.5 312 L 363.5 319 L 359 321 L 359 323 L 357 323 Q 358.1 325.7 355.5 325 L 350 332 L 347 333.5 L 345 336.5 L 341 342 Q 338.3 340.9 339 343.5 L 335 347.5 L 329 358 Q 326 356.8 327 360.5 L 322 367.5 L 322 370 Q 318.7 368.7 320 373.5 L 313 386.5 L 310 399.5 L 308 402.5 L 308 406.5 L 306.5 408 L 306 403.5 L 308 400.5 L 313 382.5 L 322 364.5 L 337 342 Q 339.7 343.1 339 340.5 L 351 326 L 368.5 312 L 386.5 300 L 404.5 291 L 424.5 284 Z " /><path fill="rgb(254,254,254)" stroke="rgb(254,254,254)" stroke-width="1" opacity="0.996078431372549" d="M 465.5 302 Q 467.8 304.7 473.5 304 L 481 309.5 Q 480.3 311.8 482.5 311 Q 489.5 315.5 488 328.5 L 485 337 L 483 337 Q 484.1 339.7 481.5 339 L 480 342 L 477.5 342 L 471.5 346 L 454.5 347 L 454.5 346 L 471.5 344 Q 478.9 341.9 483 336.5 Q 487.8 331.3 486 319.5 Q 483.4 312.1 477.5 308 L 467.5 304 L 459.5 304 L 452.5 306 L 445.5 306 L 425.5 311 L 399.5 323 Q 377.1 336.1 361 355.5 L 359 358.5 Q 347.7 370.7 340.5 387 L 340 384.5 L 341 381 Q 344 382.3 343 378.5 Q 345.7 377.4 345 374 Q 347.7 375.1 347 372.5 L 355 360 Q 358 361.3 357 357.5 L 361 355 L 362 351 L 364 351 Q 362.9 348.3 365.5 349 L 371 342 L 375 341 L 380.5 334 L 393.5 325 L 396 325 L 396 323 L 399 323 Q 397.8 320 401.5 321 L 413.5 314 L 424.5 311 L 426.5 309 L 430.5 309 L 433.5 307 Q 442.1 307.1 447.5 304 L 458.5 304 L 465.5 302 Z " /><path fill="rgb(254,254,254)" stroke="rgb(254,254,254)" stroke-width="1" opacity="0.996078431372549" d="M 394.5 335 Q 401.8 333.8 403 338.5 Q 403.7 341.1 401 340 L 399.5 337 Q 393.3 335.8 392 339.5 Q 393 343.3 390 342 Q 390.5 337.3 394.5 335 Z " /><path fill="rgb(254,254,254)" stroke="rgb(254,254,254)" stroke-width="1" opacity="0.996078431372549" d="M 401 344 Q 403.7 342.9 403 345.5 L 399.5 350 L 393.5 352 Q 389.5 351.5 390 346.5 L 392 347.5 L 393.5 350 Q 399.1 350.1 401 346.5 L 401 344 Z " /><path fill="rgb(254,254,254)" stroke="rgb(254,254,254)" stroke-width="1" opacity="0.996078431372549" d="M 448.5 347 L 453 347.5 Q 451.4 350.5 446 349 Q 447.4 352.7 441.5 351 Q 438.1 354.7 432 354 Q 433.3 357.3 428.5 356 L 411.5 367 L 402 375 L 392 389 Q 389 387.8 390 391.5 L 383 402.5 L 376.5 420 L 376 416.5 L 385 395.5 L 395 380 Q 397.7 381.1 397 378.5 L 402 375 L 402 373 L 404 373 Q 402.9 370.3 405.5 371 L 423.5 357 L 433.5 352 L 436.5 352 L 448.5 347 Z " /><path fill="rgb(254,254,254)" stroke="rgb(254,254,254)" stroke-width="1" opacity="0.996078431372549" d="M 268 348 Q 270.7 346.9 270 349.5 L 263.5 361 L 263 358.5 L 264 355 L 266 355 L 266 351 Q 269.3 352.1 268 348 Z " /><path fill="rgb(254,254,254)" stroke="rgb(254,254,254)" stroke-width="1" opacity="0.996078431372549" d="M 261 362 Q 263.7 360.9 263 363.5 L 256.5 378 L 256 374.5 L 261 362 Z " /><path fill="rgb(254,254,254)" stroke="rgb(254,254,254)" stroke-width="1" opacity="0.996078431372549" d="M 691 372 Q 694.3 370.7 693 375.5 L 697 383.5 L 698 391.5 L 697 391.5 L 691 372 Z " /><path fill="rgb(254,254,254)" stroke="rgb(254,254,254)" stroke-width="1" opacity="0.996078431372549" d="M 254 379 Q 257 377.8 256 381.5 L 254 384.5 L 249.5 403 L 249 397.5 L 252 389.5 L 252 385.5 L 254 383.5 L 254 379 Z " /><path fill="rgb(254,254,254)" stroke="rgb(254,254,254)" stroke-width="1" opacity="0.996078431372549" d="M 338 388 Q 340.7 386.9 340 389.5 L 336 397.5 L 331 414.5 L 330 426.5 L 329 427.5 L 329 441.5 Q 330.9 450.6 337.5 455 L 345 458.5 L 341.5 459 L 338 458 Q 339.1 455.3 336.5 456 L 332.5 451 Q 329.9 451.8 331 448.5 L 327 441.5 L 327 429.5 L 329 424.5 L 329 415.5 Q 332 413.5 331 407.5 L 333 405.5 L 333 401.5 L 338 391.5 L 338 388 Z " /><path fill="rgb(254,254,254)" stroke="rgb(254,254,254)" stroke-width="1" opacity="0.996078431372549" d="M 698 393 Q 702 391.6 700 398.5 L 702 400.5 Q 701.1 407.9 704 411.5 L 705 430.5 L 704 430.5 L 703 416.5 L 698 393 Z " /><path fill="rgb(254,254,254)" stroke="rgb(254,254,254)" stroke-width="1" opacity="0.996078431372549" d="M 248.5 404 L 249 408.5 L 247.5 413 L 247 405.5 L 248.5 404 Z " /><path fill="rgb(254,254,254)" stroke="rgb(254,254,254)" stroke-width="1" opacity="0.996078431372549" d="M 305.5 409 L 306 415.5 L 303 430.5 L 303 465.5 L 305 472.5 L 306 485.5 L 305 485.5 L 301 462.5 L 301 434.5 L 302 433.5 L 302 423.5 L 304 417.5 L 304 411.5 L 305.5 409 Z " /><path fill="rgb(254,254,254)" stroke="rgb(254,254,254)" stroke-width="1" opacity="0.996078431372549" d="M 246.5 414 L 247 419.5 L 245 429.5 L 244 453.5 L 245 454.5 L 245 471.5 L 246 472.5 L 247 485.5 L 245 484.5 L 245 474.5 L 243 466.5 L 243 431.5 Q 246.6 426.1 245 415.5 L 246.5 414 Z " /><path fill="rgb(254,254,254)" stroke="rgb(254,254,254)" stroke-width="1" opacity="0.996078431372549" d="M 375.5 421 L 376 428.5 L 375 429.5 L 375 440.5 L 371 451 L 368 452.5 L 368 454 L 366 454 Q 367.1 456.7 364.5 456 Q 362.5 459.5 356.5 459 L 356.5 458 Q 366.1 456.1 370 448.5 L 373 441.5 L 373 432.5 L 375.5 421 Z " /><path fill="rgb(254,254,254)" stroke="rgb(254,254,254)" stroke-width="1" opacity="0.996078431372549" d="M 705.5 432 L 707 435.5 L 707 463.5 L 705.5 466 L 705.5 432 Z " /><path fill="rgb(254,254,254)" stroke="rgb(254,254,254)" stroke-width="1" opacity="0.996078431372549" d="M 646.5 438 L 647 460.5 L 646 461.5 L 645 477.5 L 641.5 490 L 641 485.5 Q 643.3 484.2 642 479.5 L 644 476.5 L 644 463.5 L 646 457.5 L 646.5 438 Z " /><path fill="rgb(254,254,254)" stroke="rgb(254,254,254)" stroke-width="1" opacity="0.996078431372549" d="M 864.5 453 L 865 473.5 L 863 480.5 L 863 488.5 L 860 502.5 L 860 508.5 L 858.5 512 L 858 504.5 L 861 491.5 L 861 480.5 L 863 476.5 L 863 456.5 L 864.5 453 Z " /><path fill="rgb(254,254,254)" stroke="rgb(254,254,254)" stroke-width="1" opacity="0.996078431372549" d="M 159.5 457 Q 162.6 464.9 161 477.5 L 163 482.5 L 163 493.5 L 166 505.5 L 166 512.5 L 165 512.5 L 161 489.5 L 160 473.5 L 159 472.5 L 159.5 457 Z " /><path fill="rgb(254,254,254)" stroke="rgb(254,254,254)" stroke-width="1" opacity="0.996078431372549" d="M 346.5 459 L 355 459.5 Q 353.5 462.5 347.5 461 L 346.5 459 Z " /><path fill="rgb(254,254,254)" stroke="rgb(254,254,254)" stroke-width="1" opacity="0.996078431372549" d="M 704.5 471 L 705 481.5 Q 702.3 483.3 704 489.5 L 702 493.5 L 702 500.5 L 700 502.5 L 700 508 Q 696.7 509.3 698 504.5 L 700 501.5 L 704.5 471 Z " /><path fill="rgb(254,254,254)" stroke="rgb(254,254,254)" stroke-width="1" opacity="0.996078431372549" d="M 306.5 487 L 308 488.5 L 308 492.5 L 310 495.5 L 313 507.5 Q 318.4 513.7 320 523 Q 323 521.8 322 525.5 L 327 535 Q 329.7 533.9 329 536.5 L 338 551 L 341 552.5 L 343 555.5 L 351.5 565 L 359 570 L 360.5 573 Q 363.1 572.3 362 575 L 364 575 L 364 577 L 367 577 Q 365.9 579.7 368.5 579 L 371 580 L 373 584 L 376 584 Q 374.9 586.7 377.5 586 L 388.5 593 L 397 596 L 397 598 Q 402.3 596.8 401.5 600 L 404.5 600 L 419 606.5 L 416.5 607 L 398.5 600 L 380.5 590 L 353 569 Q 354.1 566.3 351.5 567 L 334 547.5 L 323 530.5 L 311 506.5 L 311 503.5 L 306 490.5 L 306.5 487 Z " /><path fill="rgb(254,254,254)" stroke="rgb(254,254,254)" stroke-width="1" opacity="0.996078431372549" d="M 247.5 488 L 256 520.5 L 265 542.5 L 272 555.5 Q 292.3 590.2 321.5 616 L 340.5 631 L 347 634 Q 345.9 636.7 348.5 636 L 364.5 646 L 381.5 653 L 383.5 655 L 386.5 655 L 388.5 657 L 416.5 666 L 439 670.5 L 431.5 671 L 422.5 668 L 416.5 668 L 414.5 666 L 410.5 666 L 402.5 662 L 388.5 659 L 361.5 645 L 359 645 Q 360.3 642 356.5 643 L 350 640 L 350 638 L 347 638 Q 348.1 635.3 345.5 636 L 340 633 Q 341.1 630.3 338.5 631 L 331 626 L 331 624 L 328 624 L 328 622 L 326 622 Q 327.1 619.3 324.5 620 L 322 619 Q 323.1 616.3 320.5 617 L 312 610 L 312 608 L 310 608 Q 311.1 605.3 308.5 606 L 307 603 Q 304.3 604.1 305 601.5 L 295.5 591 Q 293.3 591.8 294 589.5 L 291 584 L 287 582 L 287 579.5 L 279 569.5 L 277 564 L 275 564 L 275 561 Q 272.3 562.1 273 559.5 L 270 552 Q 267 553.3 268 549.5 Q 265.3 548.4 266 545 Q 263 546.3 264 542.5 L 263 538 Q 259.7 539.3 261 534.5 L 259 532.5 L 256 521.5 L 254 519.5 L 254 515.5 L 252 513.5 L 252 509.5 L 249 502.5 L 249 497.5 L 247 495.5 L 247.5 488 Z " /><path fill="rgb(254,254,254)" stroke="rgb(254,254,254)" stroke-width="1" opacity="0.996078431372549" d="M 640.5 491 L 641 494.5 L 631 520.5 L 622 536.5 Q 608.4 557.9 589.5 574 L 575 584 Q 576.1 586.7 573.5 586 L 559.5 595 L 542.5 603 L 526.5 609 L 511.5 612 L 512.5 610 L 517.5 610 L 520.5 608 L 528.5 607 L 530.5 605 L 533.5 605 L 540.5 601 L 546.5 600 L 558.5 593 L 561 593 L 561 591 L 564 591 Q 562.8 588 566.5 589 L 578 582 Q 576.9 579.3 579.5 580 Q 580.7 576.2 585 577 L 588.5 572 L 591.5 570 L 595 568 L 595 566.5 L 611 549.5 L 623 530 L 625 530 L 625 526 Q 628 527.3 627 523.5 L 630 516 Q 633.3 517.3 632 512.5 L 634 510.5 L 634 507.5 L 640.5 491 Z " /><path fill="rgb(254,254,254)" stroke="rgb(254,254,254)" stroke-width="1" opacity="0.996078431372549" d="M 935.5 506 L 936 518.5 Q 933.2 520.3 935 526.5 L 933 529.5 L 933 538.5 L 931 540.5 L 931 548 Q 927.3 549.4 929 543.5 L 931 539.5 L 931 533.5 L 934 520.5 L 935.5 506 Z " /><path fill="rgb(254,254,254)" stroke="rgb(254,254,254)" stroke-width="1" opacity="0.996078431372549" d="M 697.5 509 L 698 514.5 L 695 519.5 L 695 524 L 693 524 L 693 528.5 Q 690 527.5 691 532.5 L 688 537.5 L 688 541 L 686 541 L 686 545 Q 683 543.8 684 547.5 L 674 566 Q 671.3 564.9 672 567.5 L 669 573 Q 666.3 571.9 667 574.5 L 665.5 577 L 668.5 579 L 670 582 L 681 589 L 681 591 Q 683.7 589.9 683 592.5 L 686 594 L 686.5 596 L 715.5 596 L 727.5 601 L 733 605.5 Q 732.3 607.8 734.5 607 L 737 608 L 737 610 Q 739.7 608.9 739 611.5 L 740 614 L 744 615 L 744 617 Q 746.7 615.9 746 618.5 L 747 621 L 751 622 L 751 624 Q 753.7 622.9 753 625.5 L 754 628 L 758 629 L 758 631 Q 760.7 629.9 760 632.5 L 761 634.5 L 732.5 607 L 729.5 605 L 722.5 600 Q 717.9 600.6 716.5 598 L 695.5 597 L 694.5 598 L 686.5 598 L 677 590 Q 678.1 587.3 675.5 588 L 666.5 579 L 665 579 L 664 575.5 L 668 569 Q 670.7 570.1 670 567.5 Q 688.3 542.8 697.5 509 Z " /><path fill="rgb(254,254,254)" stroke="rgb(254,254,254)" stroke-width="1" opacity="0.996078431372549" d="M 857.5 514 L 858 518.5 L 856 522.5 L 855 532.5 L 853 535.5 L 853 540.5 L 849 551.5 L 846 565.5 L 837.5 587 L 837 584.5 L 847 557.5 L 847 552.5 L 849 550.5 L 849 545.5 L 851 542.5 L 851 537.5 L 854 529.5 L 854 523.5 L 857.5 514 Z " /><path fill="rgb(254,254,254)" stroke="rgb(254,254,254)" stroke-width="1" opacity="0.996078431372549" d="M 166.5 515 L 168 516.5 L 168 522.5 L 170 525.5 L 170 531.5 L 173 538.5 L 173 543.5 L 172 543.5 L 169 533.5 L 168 523.5 L 166 520.5 L 166.5 515 Z " /><path fill="rgb(254,254,254)" stroke="rgb(254,254,254)" stroke-width="1" opacity="0.996078431372549" d="M 93.5 544 L 100 573.5 L 102 577.5 L 102 581.5 L 104 584.5 L 116 624.5 L 130 658.5 L 142 682.5 Q 158.6 714.9 179 743.5 L 193 762.5 L 226 802 Q 228.7 800.9 228 803.5 Q 251.2 830.3 279 851 Q 277.9 853.7 280.5 853 Q 285.5 859.9 293 863 Q 291.9 865.7 294.5 865 L 336.5 898 L 370.5 921 L 408.5 944 L 489.5 986 L 501.5 991 L 515.5 992 Q 516.8 989.8 521.5 991 L 533.5 986 L 579.5 963 L 614 944 Q 615.1 946.7 612.5 946 L 604.5 951 L 602 951 Q 603.1 953.7 600.5 953 L 588.5 960 L 586 960 Q 587.3 963 583.5 962 L 576 965 Q 577.3 968 573.5 967 L 567.5 971 L 562 972 L 562 974 L 558 974 Q 559.3 977 555.5 976 Q 553.4 979.9 548 979 Q 549.3 982 545.5 981 L 520.5 993 L 502.5 993 L 479.5 983 L 463.5 974 L 461 974 Q 462.3 970.7 457.5 972 L 449.5 967 L 447 967 Q 448.3 963.7 443.5 965 Q 442.2 961.2 438 962 L 438 960 L 434 960 Q 435.3 957 431.5 958 L 424 955 Q 425.3 952 421.5 953 L 414.5 948 L 408 946 Q 409.3 943 405.5 944 L 402.5 941 L 396 939 Q 397.1 936.3 394.5 937 L 385 932 Q 386.3 929 382.5 930 L 375.5 925 L 373 925 Q 374.1 922.3 371.5 923 L 352 911 Q 353.3 908 349.5 909 L 345 906 Q 346.3 903 342.5 904 L 325.5 891 L 322 890 Q 323.1 887.3 320.5 888 L 313 883 Q 314.1 880.3 311.5 881 L 305 875.5 Q 305.8 872.9 302.5 874 L 298 871 L 298 869 L 296 869 Q 297.1 866.3 294.5 867 L 289 864 L 289 862 L 287 862 Q 288.1 859.3 285.5 860 L 273 850 L 273 848 Q 270.3 849.1 271 846.5 L 263 841 L 263 839 L 261 839 Q 262.1 836.3 259.5 837 L 256 832 L 250 829 L 244.5 822 L 241.5 820 L 238 815 Q 235.3 816.1 236 813.5 L 228 804 L 221 798.5 L 219 795.5 L 217 792 Q 214.3 793.1 215 790.5 L 210 787 L 207 782.5 L 207 780 L 205 780 L 205 778 Q 202.3 779.1 203 776.5 L 198 769 L 196 769 L 196 767 Q 193.3 768.1 194 765.5 L 191 760 L 187 757.5 L 179 744 L 177 744 L 177 741 Q 174.3 742.1 175 739.5 L 172 734 L 170 734 L 170 731 Q 167.3 732.1 168 729.5 L 163 720 Q 160.3 721.1 161 718.5 L 154 707.5 L 151 699 Q 148.3 700.1 149 697.5 L 142 685.5 L 142 683 Q 139 684.3 140 680.5 L 137 673 L 135 673 L 135 669 Q 132 670.3 133 666.5 L 126 653.5 L 126 650.5 L 121 641.5 L 121 638 Q 117.7 639.3 119 634.5 Q 116 631.5 116 625.5 L 114 623.5 L 114 619.5 Q 111.3 618.8 112 614.5 L 110 612.5 L 109 604.5 L 107 602.5 L 107 598.5 L 103 590.5 L 102 582.5 L 100 580.5 L 100 575.5 L 98 573.5 L 95 553.5 L 93 551.5 L 93.5 544 Z " /><path fill="rgb(254,254,254)" stroke="rgb(254,254,254)" stroke-width="1" opacity="0.996078431372549" d="M 173 545 Q 177 543.6 175 550.5 L 177 552.5 L 177 557.5 Q 180.7 560.3 180 567.5 L 182 569.5 L 182 573.5 L 184 575.5 L 189 593 Q 192.3 591.7 191 596.5 L 196 610 Q 199.3 608.7 198 613.5 L 201 621 Q 204 619.8 203 623.5 L 208 631.5 L 208 635 Q 211 633.8 210 637.5 L 215 645.5 L 215 649 L 217 649 L 217 652 Q 220 650.8 219 654.5 Q 222.6 656.4 222 661 Q 224.7 659.9 224 662.5 L 229 672 L 231 672 L 231 675 Q 233.7 673.9 233 676.5 L 236 682 Q 239 680.8 238 684.5 L 243.5 692 Q 246.1 691.2 245 694.5 L 252 705 L 255 706.5 L 262 717 Q 264.7 715.9 264 718.5 L 266 722 Q 268.7 720.9 268 723.5 L 276 733 Q 278.7 731.9 278 734.5 L 280 738 L 282 738 Q 280.9 740.7 283.5 740 L 285 743 L 287 743 L 287 745 L 289 745 Q 287.9 747.7 290.5 747 L 292 750 L 294 750 L 294 752 Q 296.7 750.9 296 753.5 L 299 755 L 299 757 L 301 757 L 301 759 L 303 759 Q 301.9 761.7 304.5 761 L 311 766 Q 309.9 768.7 312.5 768 L 317 771 L 317 773 Q 319.7 771.9 319 774.5 L 325 778 L 325 780 L 327 780 Q 325.9 782.7 328.5 782 L 334 785 L 334 787 L 336 787 Q 334.9 789.7 337.5 789 L 345 794 Q 343.9 796.7 346.5 796 L 348 799 L 350.5 799 L 363.5 810 L 373 815 Q 371.8 818 375.5 817 L 378 818 Q 376.9 820.7 379.5 820 L 383 822 Q 384.1 824.7 381.5 824 L 358.5 808 L 311 770 Q 312.1 767.3 309.5 768 L 287 746.5 L 283 741.5 L 276 733 Q 273.3 734.1 274 731.5 Q 266.2 725.5 262 717 Q 259.3 718.1 260 715.5 Q 228.6 678.9 206 633.5 L 192 604.5 L 192 601.5 L 176 559.5 L 176 555.5 L 173 545 Z " /><path fill="rgb(254,254,254)" stroke="rgb(254,254,254)" stroke-width="1" opacity="0.996078431372549" d="M 928.5 550 L 929 556.5 L 926 564.5 L 926 570.5 L 924.5 572 L 924 567.5 L 928.5 550 Z " /><path fill="rgb(254,254,254)" stroke="rgb(254,254,254)" stroke-width="1" opacity="0.996078431372549" d="M 923.5 573 L 924 578.5 L 922 580.5 L 922 585.5 L 919 592.5 L 919 596.5 L 917 598.5 L 917 602.5 L 915 604.5 L 915 608.5 L 912 614.5 L 912 617.5 L 908 624.5 L 907 630.5 L 903 637.5 L 903 641 Q 900 642.3 901 638.5 L 903 636.5 L 908 623.5 L 908 620.5 L 910 618.5 L 923.5 573 Z " /><path fill="rgb(254,254,254)" stroke="rgb(254,254,254)" stroke-width="1" opacity="0.996078431372549" d="M 835 588 Q 838 586.8 837 590.5 L 823.5 620 L 823 617.5 L 826 613.5 L 830 600.5 L 835 591.5 L 835 588 Z " /><path fill="rgb(254,254,254)" stroke="rgb(254,254,254)" stroke-width="1" opacity="0.996078431372549" d="M 420.5 607 L 428.5 608 L 431.5 610 L 436.5 610 L 439.5 612 L 445.5 612 L 447 613.5 L 441.5 614 L 437.5 612 L 422.5 609 L 420.5 607 Z " /><path fill="rgb(254,254,254)" stroke="rgb(254,254,254)" stroke-width="1" opacity="0.996078431372549" d="M 502.5 612 L 510 612.5 Q 507.6 615.1 501.5 614 L 502.5 612 Z " /><path fill="rgb(254,254,254)" stroke="rgb(254,254,254)" stroke-width="1" opacity="0.996078431372549" d="M 448.5 614 L 482.5 615 L 484.5 615 Q 490 612.5 499.5 614 L 499.5 615 L 494.5 616 L 452.5 616 L 448.5 615 L 448.5 614 Z " /><path fill="rgb(254,254,254)" stroke="rgb(254,254,254)" stroke-width="1" opacity="0.996078431372549" d="M 821 621 Q 823.7 619.9 823 622.5 L 817 633.5 L 817 636.5 L 823 641 L 823 643 Q 825.7 641.9 825 644.5 L 830 648 Q 828.9 650.7 831.5 650 L 862.5 681 L 873.5 691 L 875.5 691 L 879.5 686 L 880 688.5 L 877.5 692 L 873.5 693 L 868 689 L 862.5 682 L 859.5 680 L 845.5 666 L 844 666 L 844 664 L 842 664 Q 843.1 661.3 840.5 662 L 839 659 L 837 659 L 837 657 L 835 657 Q 836.1 654.3 833.5 655 L 832 652 L 830 652 L 830 650 L 828 650 Q 829.1 647.3 826.5 648 L 823 643 L 821 643 Q 822.1 640.3 819.5 641 Q 814.5 639.5 816 631.5 L 821 623.5 L 821 621 Z " /><path fill="rgb(254,254,254)" stroke="rgb(254,254,254)" stroke-width="1" opacity="0.996078431372549" d="M 614.5 627 L 618.5 627 L 627 634 L 627 636 L 629 636 Q 627.9 638.7 630.5 638 L 632 641 L 641 647.5 L 640 660.5 Q 642.5 662 641 667.5 L 639 666.5 L 639 647.5 L 635.5 645 L 632 643 Q 633.1 640.3 630.5 641 L 627 636 L 620 630.5 Q 620.8 628.3 618.5 629 L 616.5 628 L 614 629 L 614 631 L 611 631 Q 612.1 633.7 609.5 633 L 606 634 Q 607.1 636.7 604.5 636 Q 603.4 638.8 600 638 Q 601.3 641 597.5 640 Q 595.6 643.6 591 643 Q 592.3 646 588.5 645 Q 586.3 648.5 581 648 L 581 650 L 577 650 Q 578.3 653 574.5 652 L 572.5 654 L 562.5 657 L 560.5 659 L 557.5 659 L 555.5 661 L 547.5 662 L 545.5 664 L 541.5 664 L 533.5 668 L 527.5 668 L 517.5 671 L 511.5 671 L 511.5 670 L 533.5 666 L 561.5 657 L 599.5 638 L 614.5 627 Z " /><path fill="rgb(254,254,254)" stroke="rgb(254,254,254)" stroke-width="1" opacity="0.996078431372549" d="M 762.5 635 L 765 636.5 L 767 639.5 L 768 642 L 772 643 L 772 645 Q 774.7 643.9 774 646.5 L 775 649 L 777.5 649 L 789.5 661 L 791 661 Q 789.9 663.7 792.5 663 L 794 666 L 796 666 L 796 668 L 798 668 L 798 670 Q 800.7 668.9 800 671.5 L 803 673 L 803 675 L 805 675 Q 803.9 677.7 806.5 677 L 808 680 L 810 680 L 810 682 L 812 682 L 812 684 Q 814.7 682.9 814 685.5 L 817 687 L 817 689 L 819 689 Q 817.9 691.7 820.5 691 L 824 696 L 826 696 Q 824.9 698.7 827.5 698 L 829 701 L 831 701 L 831 703 L 833 703 Q 831.9 705.7 834.5 705 L 838 710 L 840 710 Q 838.9 712.7 841.5 712 L 845 717 L 847 717 Q 845.9 719.7 848.5 719 L 852 724 L 854 724 Q 852.9 726.7 855.5 726 L 859 731 L 866 735.5 Q 864.9 738.8 867.5 738 L 872 741.5 L 873 745 L 875 745 L 875 747 Q 877.7 745.9 877 748.5 Q 880.6 750.4 880 755 Q 883 753.8 882 757.5 L 884 759.5 L 884 763.5 L 886 765.5 Q 884.7 770.2 887 771.5 L 887 795.5 L 880 812.5 L 874.5 818 Q 872.3 817.3 873 819.5 L 872 822 L 866 825 Q 867.1 827.7 864.5 827 L 846.5 836 L 828.5 838 L 827.5 837 L 813.5 836 L 795 829 L 793 825 L 790 825 Q 791.1 822.3 788.5 823 L 784 820 L 780.5 815 L 775.5 811 L 774 808 L 772 808 L 772 806 L 770 806 Q 771.1 803.3 768.5 804 L 767 801 L 765.5 801 L 748 784.5 L 748 783 L 746 783 Q 747.1 780.3 744.5 781 L 741 776 L 739 776 Q 740.1 773.3 737.5 774 L 732 767 L 727 763.5 L 727 762 L 725 762 Q 726.1 759.3 723.5 760 L 721 759 L 715.5 752 L 714 752 L 714 750 Q 711.3 751.1 712 748.5 L 707 745 L 707 743 Q 704.3 744.1 705 741.5 L 700 737.5 Q 700.8 735.3 698.5 736 L 697 733 L 695 733 L 695 731 L 693 731 L 693 729 Q 690.3 730.1 691 727.5 L 683 722 L 683 720 L 681 720 Q 682.1 717.3 679.5 718 L 678 715 L 676 715 L 676 713 L 674 713 Q 675.1 710.3 672.5 711 L 671 708 L 669 708 L 669 706 L 667 706 Q 668.1 703.3 665.5 704 L 664 701 L 662 701 L 662 699 L 660 699 Q 661.1 696.3 658.5 697 L 655 692 L 653 692 Q 654.1 689.3 651.5 690 Q 642.7 683.3 641 669.5 L 642 669.5 Q 645 682.5 653.5 690 L 658.5 694 L 660 697 L 662 697 Q 660.9 699.7 663.5 699 L 710.5 746 L 725.5 760 L 727 760 L 730.5 765 L 732 765 L 732 767 L 734 767 L 734 769 Q 736.7 767.9 736 770.5 L 739 772 L 739 774 L 741 774 L 741 776 Q 743.7 774.9 743 777.5 L 746 779 L 746 781 L 748 781 Q 746.9 783.7 749.5 783 Q 771.3 806.8 796.5 827 L 801.5 830 L 816.5 835 L 835.5 836 Q 837.3 833.3 843.5 835 L 857.5 830 Q 869.3 823.8 877 813.5 Q 882.7 806.7 885 796.5 L 886 776.5 L 884 765.5 L 878 751.5 L 853.5 726 Q 851.3 726.8 852 724.5 L 845 719 L 845 717 L 843 717 Q 844.1 714.3 841.5 715 L 840 712 L 838 712 Q 839.1 709.3 836.5 710 L 819 692.5 L 819 691 L 817.5 691 L 766 640.5 L 762.5 635 Z " /><path fill="rgb(254,254,254)" stroke="rgb(254,254,254)" stroke-width="1" opacity="0.996078431372549" d="M 900.5 642 L 901 644.5 L 896 657 Q 893.3 658.1 894 655.5 L 900.5 642 Z " /><path fill="rgb(254,254,254)" stroke="rgb(254,254,254)" stroke-width="1" opacity="0.996078431372549" d="M 893.5 658 L 894 660.5 L 893 664 L 891 664 L 891 668 L 889 668 Q 890.3 672.1 887 671 L 893.5 658 Z " /><path fill="rgb(254,254,254)" stroke="rgb(254,254,254)" stroke-width="1" opacity="0.996078431372549" d="M 441.5 671 L 449.5 671 L 458.5 673 L 492.5 673 L 493.5 672 L 507.5 671 L 506.5 673 Q 494.7 671.7 487.5 675 L 459.5 675 L 456.5 673 L 443.5 673 L 441.5 671 Z " /><path fill="rgb(254,254,254)" stroke="rgb(254,254,254)" stroke-width="1" opacity="0.996078431372549" d="M 886.5 672 L 887 674.5 L 886 678 L 884 678 L 884 682 L 882 682 Q 883.3 686.1 880 685 L 886.5 672 Z " /><path fill="rgb(254,254,254)" stroke="rgb(254,254,254)" stroke-width="1" opacity="0.996078431372549" d="M 694.5 780 L 697.5 782 L 702 785 L 702 787 Q 704.7 785.9 704 788.5 L 707 790 L 707 792 L 709 792 L 709 794 Q 711.7 792.9 711 795.5 L 714 797 L 714 799 L 716 799 L 716 801 Q 718.7 799.9 718 802.5 L 721 804 L 721 806 L 723 806 L 723 808 Q 725.7 806.9 725 809.5 L 728 811 L 728 813 L 730 813 L 730 815 Q 732.7 813.9 732 816.5 L 735 818 L 735 820 L 737 820 L 737 822 L 739 822 Q 737.9 824.7 740.5 824 L 744 829 L 754 836 L 754 838 Q 756.7 836.9 756 839.5 L 757 841.5 L 748.5 851 L 745.5 853 L 742 855 Q 743.1 857.7 740.5 857 Q 735.5 863.9 728 867 L 728 869 L 726 869 Q 727.1 871.7 724.5 871 L 719 874 L 719 876 L 717 876 Q 718.1 878.7 715.5 878 L 708.5 884 L 705 885 Q 706.1 887.7 703.5 887 Q 702.2 890.8 698 890 L 696.5 893 L 691 895 L 689 899 L 686 899 Q 687.1 901.7 684.5 901 L 679 904 Q 680.1 906.7 677.5 906 L 658 918 Q 659.1 920.7 656.5 920 L 641.5 930 L 639 930 Q 640.3 933 636.5 932 L 623.5 941 L 615.5 944 L 616.5 942 L 646.5 925 L 701 888 Q 699.9 885.3 702.5 886 L 752 846 L 752 844 Q 754.7 845.1 754 842.5 L 755 840.5 L 695.5 782 L 693.5 782 L 687 787 Q 688.1 789.7 685.5 789 Q 652 818.5 612.5 842 L 569.5 866 L 525 887 L 525 885 L 529 885 Q 527.8 882 531.5 883 L 533.5 881 L 543 878 Q 541.8 875 545.5 876 L 564.5 866 L 567 866 L 567 864 L 571 864 Q 569.8 861 573.5 862 L 584.5 855 L 593 852 L 593 850 L 597 850 Q 595.8 847 599.5 848 Q 600.9 844 606 845 Q 604.9 842.3 607.5 843 L 617.5 836 L 620 836 L 620 834 L 623 834 Q 621.9 831.3 624.5 832 L 631.5 827 L 634 827 Q 632.9 824.3 635.5 825 L 639 824 Q 637.9 821.3 640.5 822 L 651 815 Q 649.9 812.3 652.5 813 L 658 810 Q 656.8 807 660.5 808 L 667 803 L 667 801 L 670 801 Q 668.9 798.3 671.5 799 L 676 796 L 676 794 L 679 794 L 679 792 L 681 792 Q 679.9 789.3 682.5 790 L 685 789 L 688.5 784 L 694.5 780 Z " /><path fill="rgb(254,254,254)" stroke="rgb(254,254,254)" stroke-width="1" opacity="0.996078431372549" d="M 384.5 824 L 392 827 Q 390.9 829.7 393.5 829 Q 406.5 840 423 846 Q 421.8 849 425.5 848 Q 430.6 853.5 439 855 Q 437.8 858 441.5 857 L 452.5 864 L 455 864 Q 456.1 866.7 453.5 866 L 395 833 Q 396.3 830 392.5 831 L 386.5 827 L 384.5 824 Z " /><path fill="rgb(254,254,254)" stroke="rgb(254,254,254)" stroke-width="1" opacity="0.996078431372549" d="M 456.5 866 L 469 871 Q 470.1 873.7 467.5 873 L 457.5 868 L 456.5 866 Z " /><path fill="rgb(254,254,254)" stroke="rgb(254,254,254)" stroke-width="1" opacity="0.996078431372549" d="M 470.5 873 L 483 878 Q 484.1 880.7 481.5 880 L 471.5 875 L 470.5 873 Z " /><path fill="rgb(254,254,254)" stroke="rgb(254,254,254)" stroke-width="1" opacity="0.996078431372549" d="M 484.5 880 L 495 883 Q 493.8 886 497.5 885 L 499.5 887 L 512.5 892 L 518.5 888 L 523.5 887 L 522.5 889 L 509.5 893 L 494.5 885 L 485.5 882 L 484.5 880 Z " /><path fill="rgb(255,255,255)" stroke="rgb(255,255,255)" stroke-width="1" opacity="1" d="M 145.5 0 L 878.5 0 L 879.5 1 L 888.5 1 L 911.5 5 L 926.5 9 L 944.5 16 Q 971.1 28.4 989 49.5 Q 1005.1 68.4 1014 94.5 L 1021 122.5 L 1022 134.5 L 1023 135.5 L 1023 144.5 L 1024 145.5 L 1024 878.5 L 1023 879.5 L 1023 888.5 L 1019 911.5 L 1015 926.5 L 1008 944.5 Q 995.6 971.1 974.5 989 Q 955.6 1005.1 929.5 1014 L 901.5 1021 L 889.5 1022 L 888.5 1023 L 879.5 1023 L 878.5 1024 L 145.5 1024 L 144.5 1023 L 135.5 1023 L 112.5 1019 L 97.5 1015 L 79.5 1008 Q 52.9 995.6 35 974.5 Q 18.9 955.6 10 929.5 L 3 901.5 L 2 889.5 L 1 888.5 L 1 879.5 L 0 878.5 L 0 145.5 L 1 144.5 L 1 135.5 L 5 112.5 L 9 97.5 L 16 79.5 Q 28.4 52.9 49.5 35 Q 68.4 18.9 94.5 10 L 122.5 3 L 134.5 2 L 135.5 1 L 144.5 1 L 145.5 0 Z M 509 31 Q 507 33 503 32 L 496 36 Q 493 35 494 38 Q 490 37 489 41 Q 486 40 487 43 L 477 50 Q 474 49 475 52 L 470 55 Q 467 54 468 57 L 466 57 L 466 59 Q 462 58 461 62 Q 458 61 459 64 L 457 64 L 450 69 Q 447 68 448 71 L 445 71 L 445 73 L 437 78 Q 433 77 434 80 L 432 80 L 425 85 Q 421 84 422 87 L 377 111 Q 372 110 373 113 L 370 113 L 358 120 Q 353 119 354 122 L 351 122 L 341 127 L 338 127 L 336 129 L 333 129 L 323 134 L 320 134 L 318 136 L 306 139 L 303 141 Q 297 139 298 143 L 294 143 L 284 146 L 282 148 L 278 148 L 264 153 L 260 153 L 258 155 L 253 155 L 251 157 L 245 157 L 237 160 L 231 160 Q 229 163 223 162 L 221 164 L 215 164 L 206 167 L 201 167 L 199 169 L 191 169 L 189 171 L 179 171 L 166 174 L 158 174 L 154 176 L 144 176 L 142 178 L 115 179 L 104 181 L 102 183 Q 97 182 98 185 Q 92 187 88 193 Q 89 196 86 195 L 82 206 L 82 217 L 81 218 L 81 449 L 82 450 L 83 474 L 84 475 L 84 491 L 86 500 L 86 510 L 88 514 L 89 530 L 91 535 L 91 542 L 93 544 L 93 552 L 95 554 L 98 574 L 100 576 L 100 581 L 102 583 L 103 591 L 107 599 L 107 603 L 109 605 L 110 613 L 112 615 Q 111 619 114 620 L 114 624 L 116 626 Q 116 632 119 635 Q 118 639 121 638 L 121 642 L 126 651 L 126 654 L 133 667 Q 132 670 135 669 L 135 673 L 137 673 L 140 681 Q 139 684 142 683 L 142 686 L 149 698 Q 148 700 151 699 L 154 708 L 161 719 Q 160 721 163 720 L 168 730 Q 167 732 170 731 L 170 734 L 172 734 L 175 740 Q 174 742 177 741 L 177 744 L 179 744 L 187 758 L 191 760 L 194 766 Q 193 768 196 767 L 196 769 L 198 769 L 203 777 Q 202 779 205 778 L 205 780 L 207 780 L 207 783 L 210 787 L 215 791 Q 214 793 217 792 L 219 796 L 221 799 L 228 804 L 236 814 Q 235 816 238 815 L 242 820 L 245 822 L 250 829 L 256 832 L 260 837 Q 262 836 261 839 L 263 839 L 263 841 L 271 847 Q 270 849 273 848 L 273 850 L 286 860 Q 288 859 287 862 L 289 862 L 289 864 L 295 867 Q 297 866 296 869 L 298 869 L 298 871 L 303 874 Q 306 873 305 876 L 312 881 Q 314 880 313 883 L 321 888 Q 323 887 322 890 L 326 891 L 343 904 Q 346 903 345 906 L 350 909 Q 353 908 352 911 L 372 923 Q 374 922 373 925 L 376 925 L 383 930 Q 386 929 385 932 L 395 937 Q 397 936 396 939 L 403 941 L 406 944 Q 409 943 408 946 L 415 948 L 422 953 Q 425 952 424 955 L 432 958 Q 435 957 434 960 L 438 960 L 438 962 Q 442 961 444 965 Q 448 964 447 967 L 450 967 L 458 972 Q 462 971 461 974 L 464 974 L 480 983 L 503 993 L 521 993 L 546 981 Q 549 982 548 979 Q 553 980 556 976 Q 559 977 558 974 L 562 974 L 562 972 L 568 971 L 574 967 Q 577 968 576 965 L 584 962 Q 587 963 586 960 L 589 960 L 601 953 Q 603 954 602 951 L 605 951 L 613 946 Q 615 947 614 944 L 618 944 L 624 941 L 637 932 Q 640 933 639 930 L 642 930 L 657 920 Q 659 921 658 918 L 678 906 Q 680 907 679 904 L 685 901 Q 687 902 686 899 L 689 899 L 691 895 L 697 893 L 698 890 Q 702 891 704 887 Q 706 888 705 885 L 709 884 L 716 878 Q 718 879 717 876 L 719 876 L 719 874 L 725 871 Q 727 872 726 869 L 728 869 L 728 867 Q 736 864 741 857 Q 743 858 742 855 L 746 853 L 749 851 L 757 842 L 756 840 Q 757 837 754 838 L 754 836 L 744 829 L 741 824 Q 738 825 739 822 L 737 822 L 737 820 L 735 820 L 735 818 L 732 817 Q 733 814 730 815 L 730 813 L 728 813 L 728 811 L 725 810 Q 726 807 723 808 L 723 806 L 721 806 L 721 804 L 718 803 Q 719 800 716 801 L 716 799 L 714 799 L 714 797 L 711 796 Q 712 793 709 794 L 709 792 L 707 792 L 707 790 L 704 789 Q 705 786 702 787 L 702 785 L 698 782 Q 695 783 696 780 L 689 784 L 685 789 L 683 790 Q 680 789 681 792 L 679 792 L 679 794 L 676 794 L 676 796 L 672 799 Q 669 798 670 801 L 667 801 L 667 803 L 661 808 Q 657 807 658 810 L 653 813 Q 650 812 651 815 L 641 822 Q 638 821 639 824 L 636 825 Q 633 824 634 827 L 632 827 L 625 832 Q 622 831 623 834 L 620 834 L 620 836 L 618 836 L 608 843 Q 605 842 606 845 Q 601 844 600 848 Q 596 847 597 850 L 593 850 L 593 852 L 585 855 L 574 862 Q 570 861 571 864 L 567 864 L 567 866 L 565 866 L 546 876 Q 542 875 543 878 L 534 881 L 532 883 Q 528 882 529 885 L 525 885 L 525 887 L 519 888 L 513 892 L 500 887 L 498 885 Q 494 886 495 883 L 492 883 L 487 880 Q 482 881 483 878 L 481 878 L 473 873 Q 468 874 469 871 L 467 871 L 459 866 Q 454 867 455 864 L 453 864 L 442 857 Q 438 858 439 855 Q 431 854 426 848 Q 422 849 423 846 Q 406 840 394 829 Q 391 830 392 827 Q 388 828 387 824 Q 382 825 383 822 L 380 820 Q 377 821 378 818 L 376 817 Q 372 818 373 815 L 364 810 L 351 799 L 348 799 L 347 796 Q 344 797 345 794 L 338 789 Q 335 790 336 787 L 334 787 L 334 785 L 329 782 Q 326 783 327 780 L 325 780 L 325 778 L 319 775 Q 320 772 317 773 L 317 771 L 313 768 Q 310 769 311 766 L 305 761 Q 302 762 303 759 L 301 759 L 301 757 L 299 757 L 299 755 L 296 754 Q 297 751 294 752 L 294 750 L 292 750 L 291 747 Q 288 748 289 745 L 287 745 L 287 743 L 285 743 L 284 740 Q 281 741 282 738 L 280 738 L 278 735 Q 279 732 276 733 L 268 724 Q 269 721 266 722 L 264 719 Q 265 716 262 717 L 255 707 L 252 705 L 245 695 Q 246 691 244 692 L 238 685 Q 239 681 236 682 L 233 677 Q 234 674 231 675 L 231 672 L 229 672 L 224 663 Q 225 660 222 661 Q 223 656 219 655 Q 220 651 217 652 L 217 649 L 215 649 L 215 646 L 210 638 Q 211 634 208 635 L 208 632 L 203 624 Q 204 620 201 621 L 198 614 Q 199 609 196 610 L 191 597 Q 192 592 189 593 L 184 576 L 182 574 L 182 570 L 180 568 Q 181 560 177 558 L 177 553 L 175 551 Q 177 544 173 545 L 173 539 Q 169 534 170 526 L 168 523 L 168 517 L 166 515 L 166 506 L 163 494 L 163 483 L 161 478 L 161 463 L 159 457 L 159 246 Q 166 247 169 244 L 178 244 L 180 242 L 190 242 Q 191 239 198 241 L 201 239 L 208 239 Q 210 236 217 237 L 219 235 L 225 235 Q 226 233 231 234 L 234 232 L 239 232 L 241 230 L 248 230 L 250 228 L 261 227 L 263 225 Q 269 227 268 223 Q 274 225 276 221 L 286 220 L 288 218 L 298 216 L 300 214 L 315 211 L 317 209 Q 323 211 322 207 L 327 207 L 333 204 L 336 204 L 338 202 L 341 202 L 343 200 L 350 199 L 362 193 L 373 190 L 375 188 Q 379 189 378 186 Q 386 186 392 181 Q 396 182 395 179 Q 403 179 409 174 Q 412 175 411 172 L 418 171 L 424 167 Q 428 168 427 165 L 433 164 L 446 157 Q 449 158 448 155 Q 451 156 453 153 Q 456 154 455 151 Q 461 152 464 148 Q 467 149 466 146 L 469 146 L 469 144 Q 474 145 477 141 Q 480 142 479 139 L 483 139 L 483 137 L 486 136 Q 489 137 488 134 Q 491 135 493 132 Q 496 133 495 130 L 503 127 Q 505 128 504 125 L 507 125 L 507 123 L 510 122 L 514 123 Q 517 122 516 125 L 520 125 L 520 127 L 526 130 L 529 130 Q 528 133 532 132 L 532 134 L 536 134 L 536 136 Q 541 135 543 139 Q 546 138 545 141 L 553 144 Q 556 143 555 146 Q 558 145 560 148 Q 563 147 562 150 L 566 151 Q 570 150 569 153 Q 572 152 574 155 Q 577 154 576 157 L 580 158 L 583 158 Q 582 161 587 160 L 587 162 L 597 165 L 610 172 Q 614 171 613 174 L 628 179 L 630 181 L 633 181 L 642 186 L 646 186 Q 645 190 650 188 L 650 190 L 655 190 L 657 192 L 663 193 L 675 199 L 682 200 L 694 206 L 701 207 L 703 209 L 707 209 L 709 211 L 713 211 L 715 213 L 724 214 L 726 216 L 730 216 L 738 220 L 747 221 L 749 223 L 754 223 L 756 225 Q 761 224 763 227 L 775 228 L 777 230 L 783 230 L 785 232 Q 791 231 793 234 L 804 235 L 807 237 L 813 237 L 815 239 L 822 239 L 826 241 L 841 242 L 844 244 L 855 244 Q 858 248 865 246 L 865 453 L 863 457 L 863 477 L 861 481 L 861 492 L 858 505 L 858 514 L 856 516 Q 857 522 854 524 L 854 530 L 851 538 L 851 543 L 849 546 L 849 551 L 847 553 L 847 558 L 837 585 Q 838 589 835 588 L 835 592 L 830 601 L 826 614 L 823 618 Q 824 622 821 621 L 821 624 L 816 632 Q 815 640 820 641 Q 822 640 821 643 L 823 643 L 827 648 Q 829 647 828 650 L 830 650 L 830 652 L 832 652 L 834 655 Q 836 654 835 657 L 837 657 L 837 659 L 839 659 L 841 662 Q 843 661 842 664 L 844 664 L 844 666 L 846 666 L 860 680 L 863 682 L 868 689 L 874 693 L 878 692 L 880 689 L 880 685 Q 883 686 882 682 L 884 682 L 884 678 L 886 678 L 887 675 L 887 671 Q 890 672 889 668 L 891 668 L 891 664 L 893 664 L 894 661 Q 893 656 896 657 L 901 645 Q 900 640 903 641 L 903 638 L 907 631 L 908 625 L 912 618 L 912 615 L 915 609 L 915 605 L 917 603 L 917 599 L 919 597 L 919 593 L 922 586 L 922 581 L 924 579 L 924 573 L 926 571 L 926 565 L 929 557 L 929 549 L 931 548 L 931 541 L 933 539 L 933 530 L 935 527 Q 933 520 936 519 L 936 506 L 938 504 L 938 488 L 940 485 L 940 463 L 942 454 L 942 207 L 938 199 Q 939 195 936 196 L 935 194 Q 936 191 933 192 L 928 185 Q 923 186 924 183 L 915 180 L 898 179 L 897 178 L 883 178 L 880 176 Q 871 177 867 174 L 857 174 L 845 171 L 836 171 L 834 169 L 825 169 L 823 167 L 817 167 L 813 165 L 803 164 L 801 162 L 795 162 L 792 160 L 788 160 L 780 157 L 775 157 L 773 155 L 768 155 L 765 153 L 749 150 L 747 148 L 743 148 L 741 146 L 731 143 Q 725 145 726 141 L 721 141 L 719 139 L 709 136 Q 704 137 705 134 L 688 129 L 674 122 Q 669 123 670 120 L 667 120 L 658 115 L 655 115 L 642 108 Q 638 109 639 106 L 616 94 Q 612 95 613 92 Q 599 87 589 78 Q 585 79 586 76 L 578 71 Q 575 72 576 69 L 573 68 L 561 59 L 558 59 L 556 55 L 553 55 L 553 53 L 551 52 Q 548 53 549 50 L 537 43 L 536 40 Q 533 41 534 38 L 522 32 L 509 31 Z M 467 226 L 466 227 L 446 227 L 432 230 L 426 230 L 424 232 L 418 232 L 416 234 L 411 234 L 403 237 Q 398 236 399 239 L 395 239 L 393 241 L 390 241 L 378 246 L 366 253 Q 362 252 363 255 L 356 258 Q 353 257 354 260 L 352 260 L 342 267 Q 339 266 340 269 L 335 272 Q 332 271 333 274 L 331 274 L 331 276 L 326 279 L 321 283 L 319 286 L 316 288 Q 313 287 314 290 L 312 290 L 312 292 L 305 298 Q 306 300 303 299 L 301 303 L 299 306 L 296 307 L 291 315 Q 292 317 289 316 L 289 318 L 287 318 L 284 323 Q 285 326 282 325 L 275 337 Q 276 340 273 339 L 270 345 L 270 348 Q 267 347 268 351 L 266 351 L 266 355 L 264 355 L 263 359 Q 264 363 261 362 L 256 375 Q 258 380 254 379 L 254 384 L 252 386 Q 253 391 250 393 L 249 404 L 247 406 Q 249 413 245 416 L 245 427 L 243 432 L 243 467 L 245 475 L 245 485 L 247 487 L 247 496 L 249 498 L 249 503 L 252 510 L 252 514 L 254 516 L 254 520 L 256 522 L 259 533 L 261 535 Q 260 539 263 538 L 264 543 Q 263 546 266 545 Q 265 548 268 550 Q 267 553 270 552 L 273 560 Q 272 562 275 561 L 275 564 L 277 564 L 279 570 L 287 580 L 287 582 L 291 584 L 294 590 Q 293 592 296 591 L 305 602 Q 304 604 307 603 L 309 606 Q 311 605 310 608 L 312 608 L 312 610 L 321 617 Q 323 616 322 619 L 325 620 Q 327 619 326 622 L 328 622 L 328 624 L 331 624 L 331 626 L 339 631 Q 341 630 340 633 L 346 636 Q 348 635 347 638 L 350 638 L 350 640 L 357 643 Q 360 642 359 645 L 362 645 L 389 659 L 403 662 L 411 666 L 415 666 L 417 668 L 423 668 L 432 671 L 441 671 L 444 673 L 457 673 L 460 675 L 488 675 L 495 673 L 507 673 L 509 671 L 518 671 L 522 669 L 534 668 L 542 664 L 546 664 L 548 662 L 556 661 L 558 659 L 561 659 L 563 657 L 573 654 L 575 652 Q 578 653 577 650 L 581 650 L 581 648 Q 586 648 589 645 Q 592 646 591 643 Q 596 644 598 640 Q 601 641 600 638 Q 603 639 605 636 Q 607 637 606 634 L 610 633 Q 612 634 611 631 L 614 631 L 614 629 L 617 628 L 619 629 Q 621 628 620 631 L 627 636 L 631 641 Q 633 640 632 643 L 636 645 Q 638 644 637 647 L 639 647 L 639 667 L 641 669 L 641 673 L 644 681 L 652 690 Q 654 689 653 692 L 655 692 L 659 697 Q 661 696 660 699 L 662 699 L 662 701 L 664 701 L 666 704 Q 668 703 667 706 L 669 706 L 669 708 L 671 708 L 673 711 Q 675 710 674 713 L 676 713 L 676 715 L 678 715 L 680 718 Q 682 717 681 720 L 683 720 L 683 722 L 691 728 Q 690 730 693 729 L 693 731 L 695 731 L 695 733 L 697 733 L 699 736 Q 701 735 700 738 L 705 742 Q 704 744 707 743 L 707 745 L 712 749 Q 711 751 714 750 L 714 752 L 716 752 L 721 759 L 724 760 Q 726 759 725 762 L 727 762 L 727 764 L 732 767 L 738 774 Q 740 773 739 776 L 741 776 L 745 781 Q 747 780 746 783 L 748 783 L 748 785 L 766 801 L 767 801 L 769 804 Q 771 803 770 806 L 772 806 L 772 808 L 774 808 L 776 811 L 781 815 L 784 820 L 789 823 Q 791 822 790 825 L 793 825 L 795 829 L 814 836 L 828 837 L 829 838 L 847 836 L 865 827 Q 867 828 866 825 L 872 822 L 873 820 Q 872 817 875 818 L 880 813 L 887 796 L 887 772 Q 885 770 886 766 L 884 764 L 884 760 L 882 758 Q 883 754 880 755 Q 881 750 877 749 Q 878 746 875 747 L 875 745 L 873 745 L 872 742 L 868 738 Q 865 739 866 736 L 859 731 L 856 726 Q 853 727 854 724 L 852 724 L 849 719 Q 846 720 847 717 L 845 717 L 842 712 Q 839 713 840 710 L 838 710 L 835 705 Q 832 706 833 703 L 831 703 L 831 701 L 829 701 L 828 698 Q 825 699 826 696 L 824 696 L 821 691 Q 818 692 819 689 L 817 689 L 817 687 L 814 686 Q 815 683 812 684 L 812 682 L 810 682 L 810 680 L 808 680 L 807 677 Q 804 678 805 675 L 803 675 L 803 673 L 800 672 Q 801 669 798 670 L 798 668 L 796 668 L 796 666 L 794 666 L 793 663 Q 790 664 791 661 L 790 661 L 778 649 L 775 649 L 774 647 Q 775 644 772 645 L 772 643 L 768 642 L 767 640 L 765 637 L 761 635 L 760 633 Q 761 630 758 631 L 758 629 L 754 628 L 753 626 Q 754 623 751 624 L 751 622 L 747 621 L 746 619 Q 747 616 744 617 L 744 615 L 740 614 L 739 612 Q 740 609 737 610 L 737 608 L 735 607 Q 732 608 733 606 L 728 601 L 716 596 L 687 596 L 686 594 L 683 593 Q 684 590 681 591 L 681 589 L 670 582 L 669 579 L 666 577 L 667 575 Q 666 572 669 573 L 672 568 Q 671 565 674 566 L 684 548 Q 683 544 686 545 L 686 541 L 688 541 L 688 538 L 691 533 Q 690 528 693 529 L 693 524 L 695 524 L 695 520 L 698 515 Q 697 507 700 508 Q 699 502 702 501 L 702 494 L 704 490 L 705 467 L 707 464 L 707 436 L 705 432 L 705 420 L 702 407 L 702 401 L 700 399 Q 702 392 698 393 L 697 384 L 693 376 Q 694 371 691 372 Q 692 365 688 363 Q 689 359 686 360 L 686 356 L 684 356 Q 684 351 681 349 Q 682 345 679 346 L 679 344 L 672 334 Q 673 331 670 332 Q 670 326 665 323 Q 666 320 663 321 L 660 316 Q 661 313 659 314 L 653 308 Q 654 305 651 306 L 651 304 L 649 304 L 648 301 L 644 297 L 641 293 L 635 290 L 632 285 Q 629 286 630 283 L 628 283 L 628 281 L 609 267 Q 606 268 607 265 L 591 255 Q 587 256 588 253 L 584 253 L 584 251 Q 575 249 569 244 L 558 241 L 556 239 L 553 239 L 551 237 Q 544 237 540 234 L 535 234 L 533 232 L 527 232 L 525 230 L 513 229 L 507 227 L 467 226 Z " /><path fill="rgb(255,255,255)" stroke="rgb(255,255,255)" stroke-width="1" opacity="1" d="M 464.5 279 L 485.5 279 L 489.5 281 L 500.5 281 L 505.5 283 L 518.5 284 L 520.5 286 L 524.5 286 L 526.5 288 L 543.5 293 L 562.5 304 L 567 305 Q 565.9 307.7 568.5 307 L 586 319 L 586 321 L 588 321 Q 586.9 323.7 589.5 323 L 594 326 L 602 337 L 604 337 Q 602.9 339.7 605.5 339 L 609 345 L 611 345 L 611 347 Q 613.7 345.9 613 348.5 L 616 354 Q 619 352.8 618 356.5 L 627 369.5 L 637 392.5 Q 636.4 397.1 639 398.5 L 639 403.5 L 641 405.5 L 642 416.5 L 644 419.5 L 644 431.5 L 646 437.5 L 646 457.5 L 644 463.5 L 644 476.5 L 642 479.5 L 641 490.5 L 639 492.5 L 639 496.5 L 637 498.5 L 632 516 Q 629 514.8 630 518.5 L 627 526 L 625 526 L 625 530 Q 622.3 528.9 623 531.5 L 611 549.5 L 595 566.5 L 595 568 L 590 570 Q 591.1 572.7 588.5 572 L 585 577 L 582.5 577 L 578 580 Q 579.1 582.7 576.5 582 L 566.5 589 L 564 589 L 564 591 L 561 591 Q 562.3 594 558.5 593 L 546.5 600 L 540.5 601 L 528.5 607 L 520.5 608 L 517.5 610 L 512.5 610 L 510.5 612 L 502.5 612 L 500.5 614 Q 490.4 612.4 484.5 615 L 482.5 615 L 447.5 614 L 445.5 612 L 439.5 612 L 436.5 610 L 431.5 610 L 428.5 608 L 419.5 607 L 407.5 601 L 401 600 L 401 598 L 397 598 Q 398.3 595 394.5 596 L 376 586 L 376 584 L 373 584 L 373 582 L 371 582 Q 372.1 579.3 369.5 580 L 367 579 L 367 577 L 364 577 L 364 575 L 362 575 Q 363.1 572.3 360.5 573 L 359 570 L 348 561.5 L 343 554 Q 340.3 555.1 341 552.5 L 338 551 L 329 535 Q 326.3 536.1 327 533.5 L 322 525.5 L 322 523 Q 319 524.3 320 520.5 L 313 507.5 L 313 504.5 L 308 492.5 L 308 488.5 L 306 486.5 L 306 479.5 L 303 465.5 L 303 430.5 L 306 415.5 L 306 408.5 L 308 406.5 L 308 402.5 L 310 399.5 L 313 386.5 L 320 373.5 L 320 370 Q 323 371.3 322 367.5 Q 326.6 364.2 327 358 Q 329.7 359.1 329 356.5 L 339 342 Q 341.7 343.1 341 340.5 L 345 335 Q 347.7 336.1 347 333.5 L 350 332 L 355.5 325 L 360.5 321 L 370.5 312 L 380 307 Q 378.8 304 382.5 305 L 385 304 Q 383.8 301 387.5 302 Q 388.6 299.3 392 300 Q 390.8 297 394.5 298 L 408.5 291 L 420.5 288 L 422.5 286 L 426.5 286 L 428.5 284 L 441.5 283 L 445.5 281 L 463.5 280 L 464.5 279 Z M 466 302 L 459 304 L 448 304 Q 442 307 434 307 L 431 309 L 427 309 L 425 311 L 414 314 L 402 321 Q 398 320 399 323 L 396 323 L 396 325 L 394 325 L 381 334 L 375 341 L 371 342 L 366 349 Q 363 348 364 351 L 362 351 L 361 355 L 357 358 Q 358 361 355 360 L 347 373 Q 348 375 345 374 Q 346 377 343 379 Q 344 382 341 381 L 340 385 Q 341 389 338 388 L 338 392 L 333 402 L 333 406 L 331 408 Q 332 414 329 416 L 329 425 L 327 430 L 327 442 L 331 449 Q 330 452 333 451 L 337 456 Q 339 455 338 458 L 346 459 L 348 461 L 354 461 L 356 459 L 363 458 L 365 456 Q 367 457 366 454 L 368 454 L 368 453 L 371 451 L 375 441 L 376 421 L 378 419 L 378 415 L 380 413 L 383 403 L 390 392 Q 389 388 392 389 L 402 375 L 412 367 L 429 356 Q 433 357 432 354 Q 438 355 442 351 Q 447 353 446 349 Q 452 351 454 347 L 472 346 L 478 342 L 480 342 L 482 339 Q 484 340 483 337 L 485 337 L 488 329 Q 489 316 483 311 Q 480 312 481 310 L 474 304 Q 468 305 466 302 Z " /><path fill="rgb(255,255,255)" stroke="rgb(255,255,255)" stroke-width="1" opacity="1" d="M 394.5 337 Q 399.8 335.8 401 338.5 Q 400.3 341.1 403 340 L 403 344 Q 400 342.8 401 346.5 Q 399.1 350.1 393.5 350 L 390 345.5 L 390 342 Q 393 343.3 392 339.5 L 394.5 337 Z " /><path fill="rgb(64,64,64)" stroke="rgb(64,64,64)" stroke-width="1" opacity="1" d="M 506.5 35 L 517.5 35 L 528.5 39 L 564.5 67 L 612.5 97 L 653.5 118 L 704.5 139 L 722.5 144 L 734.5 149 L 744.5 151 L 747.5 153 L 785.5 163 L 789.5 163 L 793.5 165 L 797.5 165 L 801.5 167 L 866.5 179 L 877.5 179 L 883.5 181 L 911.5 183 Q 922.9 185.3 930 191 L 934 196.5 L 938 206.5 L 938 452.5 L 937 453.5 L 937 473.5 L 935 483.5 L 935 496.5 L 933 505.5 L 932 521.5 L 921 576.5 L 909 615.5 L 898 643.5 L 876 689 L 873.5 689 L 819 635.5 L 836 597.5 L 849 561.5 L 859 522.5 L 859 517.5 L 863 501.5 L 864 487.5 L 866 480.5 L 866 465.5 L 867 464.5 L 867 453.5 L 868 452.5 L 868 245.5 L 865.5 243 L 841.5 240 L 824.5 236 L 818.5 236 L 814.5 234 L 809.5 234 L 770.5 224 L 757.5 222 L 720.5 210 L 710.5 208 L 687.5 199 L 684.5 199 L 603.5 166 L 597.5 162 L 560.5 145 L 521.5 124 L 516.5 120 L 510.5 118 L 480.5 136 L 445.5 154 L 404.5 173 L 390.5 178 L 388.5 180 L 385.5 180 L 363.5 190 L 355.5 192 L 353.5 194 L 350.5 194 L 312.5 208 L 264.5 222 L 213.5 234 L 208.5 234 L 203.5 236 L 198.5 236 L 173.5 241 L 166.5 241 Q 163.6 243.6 157.5 243 L 156 244.5 L 156 459.5 L 158 469.5 L 160 496.5 L 170 544.5 L 179 574.5 L 191 606.5 L 219 661.5 Q 254.4 720.1 303.5 765 L 306.5 767 L 347.5 802 L 404.5 841 L 485.5 884 L 496.5 888 L 509.5 895 L 513.5 895 L 571.5 867 L 609.5 846 L 646.5 822 Q 670.6 805.6 691.5 786 L 695.5 785 L 739.5 828 L 741 828 L 741 830 L 743 830 Q 741.9 832.7 744.5 832 L 746 835 L 748 835 Q 746.9 837.7 749.5 837 L 753 841.5 L 744.5 850 L 743 850 Q 744.1 852.7 741.5 852 L 724.5 867 L 686.5 896 L 621.5 938 L 535.5 983 L 517.5 990 L 506.5 990 L 501.5 989 L 476.5 978 Q 464.7 969.3 449.5 964 L 419.5 948 L 372.5 920 L 311.5 877 L 267 840 Q 268.1 837.3 265.5 838 L 257 831 L 257 829 L 255 829 Q 256.1 826.3 253.5 827 L 252 824 L 250.5 824 L 236 809.5 L 234 806.5 Q 223.6 798 217 787 Q 214.3 788.1 215 785.5 Q 173.1 738.9 143 680.5 L 129 651.5 L 117 621.5 L 117 618.5 L 115 615.5 L 103 577.5 L 101 564.5 L 96 548.5 L 96 543.5 L 94 538.5 L 94 531.5 L 91 518.5 L 91 510.5 L 89 504.5 L 89 495.5 L 87 486.5 L 87 473.5 L 86 472.5 L 86 453.5 L 85 452.5 L 85 209.5 L 87 200.5 L 97.5 188 L 111.5 183 L 139.5 181 L 147.5 179 L 157.5 179 L 163.5 177 L 169.5 177 L 213.5 169 L 269.5 155 L 318.5 139 L 358.5 123 L 407.5 99 L 459.5 67 L 494.5 40 L 506.5 35 Z M 510 37 L 498 41 L 460 69 Q 457 68 458 71 L 416 97 L 380 116 L 351 129 L 306 146 L 303 146 L 301 148 L 291 150 L 275 156 L 263 158 L 260 160 L 256 160 L 253 162 L 236 165 L 233 167 L 227 167 L 225 169 L 205 172 L 201 174 L 194 174 L 191 176 L 166 179 L 161 181 L 150 181 L 144 183 L 113 185 L 102 188 L 98 191 L 89 202 Q 90 207 87 210 L 87 453 L 88 454 L 88 467 L 89 468 L 89 487 L 91 493 L 91 503 L 93 510 L 93 518 L 96 530 L 96 539 L 98 542 L 98 548 L 103 564 L 103 570 L 105 573 L 110 594 L 112 597 L 115 610 L 119 618 L 122 629 L 147 684 L 166 716 Q 165 718 168 717 L 171 725 L 192 754 Q 191 756 194 755 L 199 763 Q 198 765 201 764 L 208 774 Q 207 776 210 775 L 213 781 L 226 796 L 229 797 L 234 804 Q 233 806 236 805 L 236 807 L 238 807 L 252 822 Q 254 821 253 824 L 255 824 L 255 826 L 265 834 Q 267 833 266 836 L 268 836 L 268 838 L 275 843 Q 277 842 276 845 L 278 845 L 278 847 L 291 857 Q 293 856 292 859 L 298 862 L 326 885 Q 328 884 327 887 Q 331 886 333 890 Q 335 889 334 892 L 356 906 Q 358 905 357 908 L 360 908 L 389 927 Q 391 926 390 929 L 393 929 L 403 936 L 451 962 Q 454 961 453 964 L 456 964 L 497 985 L 508 988 L 517 988 L 527 985 L 554 971 Q 558 972 557 969 L 570 964 L 595 950 Q 598 951 597 948 L 607 943 Q 610 944 609 941 L 612 941 L 641 924 L 675 901 Q 677 902 676 899 L 686 894 L 713 873 Q 715 874 714 871 L 722 866 Q 724 867 723 864 L 740 852 L 743 848 L 746 846 Q 750 845 749 839 L 746 838 Q 747 835 744 836 L 744 834 L 742 834 L 739 829 Q 736 830 737 827 L 735 827 L 735 825 L 733 825 L 733 824 L 731 822 L 728 818 L 727 818 L 710 801 Q 707 802 708 799 L 706 799 L 706 798 L 702 795 L 701 792 Q 698 793 699 790 L 697 790 L 697 788 L 695 787 Q 692 786 693 789 L 683 797 Q 680 796 681 799 L 672 806 Q 669 805 670 808 L 646 825 Q 643 824 644 827 L 636 832 Q 632 831 633 834 L 589 860 Q 585 859 586 862 L 584 862 L 541 885 L 514 897 L 510 897 L 483 885 L 426 855 Q 423 856 424 853 L 422 853 L 415 848 L 404 843 L 370 820 Q 367 821 368 818 L 366 818 L 351 806 Q 348 807 349 804 L 344 801 Q 341 802 342 799 L 340 799 L 340 797 L 333 792 Q 330 793 331 790 L 324 785 Q 321 786 322 783 L 314 777 L 312 774 Q 301 767 293 757 Q 290 758 291 755 L 289 755 L 289 754 L 270 734 Q 271 731 268 732 L 244 703 L 228 680 L 228 678 L 219 666 L 200 631 Q 201 626 198 627 L 198 625 L 187 603 L 186 597 L 179 581 L 179 578 L 177 576 L 172 559 L 172 555 L 166 538 L 165 528 L 163 525 L 163 519 L 161 515 L 161 510 L 158 498 L 158 484 L 156 480 L 156 469 L 154 461 L 154 244 L 157 241 Q 162 242 165 239 L 173 239 L 186 236 L 194 236 L 198 234 L 203 234 L 207 232 L 212 232 L 222 229 L 229 229 L 232 227 L 245 225 L 252 222 L 257 222 L 260 220 L 264 220 L 267 218 L 271 218 L 289 213 L 302 208 L 306 208 L 345 194 L 348 194 L 350 192 L 353 192 L 378 181 L 388 178 L 390 176 L 405 171 L 441 153 L 450 150 L 486 131 L 508 117 L 512 116 L 518 118 L 526 124 L 534 127 L 552 138 L 574 148 L 579 152 L 619 169 L 625 173 L 639 178 L 641 180 L 647 181 L 649 183 L 652 183 L 654 185 L 669 190 L 671 192 L 689 197 L 696 201 L 709 204 L 711 206 L 722 208 L 734 213 L 738 213 L 740 215 L 755 218 L 758 220 Q 764 219 766 222 L 772 222 L 780 225 L 785 225 L 796 229 Q 805 229 811 232 L 817 232 L 820 234 L 826 234 L 830 236 L 837 236 L 847 238 L 849 238 L 861 241 L 867 241 L 870 245 L 870 459 L 869 460 L 869 470 L 868 471 L 868 483 L 866 487 L 866 498 L 863 509 L 861 525 L 859 527 L 859 533 L 851 563 L 833 611 L 821 634 L 826 640 Q 828 639 827 642 L 829 642 L 846 659 Q 848 658 847 661 L 849 661 L 849 663 L 852 665 Q 851 667 854 666 L 854 668 L 856 668 L 856 670 L 859 672 Q 858 674 861 673 L 861 675 L 863 675 L 863 677 L 872 684 L 875 686 L 895 646 L 912 601 L 912 597 L 917 584 L 919 571 L 921 568 Q 920 561 923 559 L 931 514 L 931 505 L 933 496 L 933 479 L 935 470 L 935 451 L 936 450 L 936 215 L 937 214 L 935 203 L 929 194 L 917 186 L 900 185 L 892 183 L 882 183 L 878 181 L 863 181 L 860 179 L 853 179 L 840 176 L 834 176 L 829 174 L 823 174 L 819 172 L 800 169 Q 798 166 792 167 L 790 165 L 785 165 L 773 162 L 770 160 L 765 160 L 762 158 L 747 155 L 744 153 L 740 153 L 738 151 L 710 143 L 669 127 L 667 125 L 653 120 L 631 109 L 596 90 L 568 71 Q 565 72 566 69 L 546 55 Q 543 56 544 53 L 524 39 L 516 37 L 510 37 Z " /><path fill="rgb(64,64,64)" stroke="rgb(64,64,64)" stroke-width="1" opacity="1" d="M 449.5 230 L 503.5 230 L 504.5 231 L 521.5 233 L 548.5 240 L 585.5 256 L 610.5 272 L 632 289 Q 630.9 291.7 633.5 291 L 646 303.5 L 646 305 Q 648.7 303.9 648 306.5 Q 674.4 335.1 690 374.5 L 697 395.5 L 702 421.5 L 702 432.5 L 703 433.5 L 703 469.5 L 702 470.5 L 702 478.5 L 699 491.5 L 699 497.5 L 692 521.5 L 690 523.5 L 690 526.5 L 680 548.5 L 662 575.5 L 662 577.5 L 671 585 Q 669.9 587.7 672.5 587 L 681 594 Q 679.9 596.7 682.5 596 Q 684.5 600 690.5 600 L 691.5 599 L 712.5 599 L 719.5 601 L 732 608 Q 730.9 610.7 733.5 610 L 788.5 665 L 790 665 Q 788.9 667.7 791.5 667 L 856.5 732 L 858 732 L 858 734 L 860 734 Q 858.9 736.7 861.5 736 L 863 739 L 870 744.5 L 872 747.5 Q 885.6 760.9 884 789.5 L 881 802.5 L 874 815 Q 871.3 813.9 872 816.5 L 866.5 822 L 850.5 831 L 836.5 834 L 824.5 834 L 809.5 831 L 792.5 822 L 755.5 786 L 754 786 Q 755.1 783.3 752.5 784 L 722.5 754 L 721 754 Q 722.1 751.3 719.5 752 L 680 713.5 Q 680.8 711.3 678.5 712 L 677 709 L 675.5 709 L 651 684.5 L 646 676.5 L 642 664.5 L 642 646.5 L 637.5 642 L 623 630 L 623 628 L 621 628 Q 622.1 625.3 619.5 626 L 615.5 625 Q 595.1 640.1 570.5 651 L 537.5 663 L 504.5 670 L 458.5 671 L 457.5 670 L 447.5 670 L 446.5 669 L 428.5 667 L 416.5 663 L 412.5 663 L 379.5 651 Q 339.4 633.1 311 603.5 L 309 600.5 L 291 580.5 L 276 558.5 L 260 525.5 L 253 504.5 L 248 481.5 L 247 458.5 L 246 457.5 L 246 440.5 L 247 439.5 L 248 417.5 L 250 412.5 L 250 407.5 L 253 398.5 L 253 394.5 Q 258.4 374.4 267 357.5 L 285 326.5 Q 300.1 306.1 318.5 289 L 332 279 Q 330.9 276.3 333.5 277 L 356.5 261 L 378.5 249 L 393.5 244 L 395.5 242 L 419.5 235 L 424.5 235 L 429.5 233 L 448.5 231 L 449.5 230 Z M 453 232 L 452 233 L 430 235 L 427 237 L 421 237 L 418 239 L 414 239 L 397 244 L 395 246 L 384 249 L 370 256 L 348 270 Q 344 269 345 272 L 342 273 L 335 279 Q 332 278 333 281 L 321 290 L 301 311 Q 302 313 299 312 L 283 334 L 264 369 L 264 372 L 259 382 L 254 400 L 252 414 L 250 418 L 250 429 L 249 430 L 249 440 L 248 441 L 248 458 L 249 459 L 250 483 L 252 486 L 252 492 L 257 508 L 257 512 L 259 514 L 262 526 L 264 528 L 264 531 L 266 533 L 271 546 L 292 578 Q 291 580 294 579 L 299 587 Q 298 589 301 588 L 306 595 Q 305 597 308 596 L 308 598 L 310 598 L 312 601 Q 314 600 313 603 L 315 603 L 315 605 L 317 605 L 319 608 Q 321 607 320 610 L 332 619 Q 334 618 333 621 L 336 621 L 351 633 Q 353 632 352 635 L 355 635 L 363 640 Q 365 639 364 642 L 370 643 L 380 649 L 383 649 L 397 656 L 401 656 Q 408 660 418 661 L 420 663 L 426 663 L 435 666 L 442 666 L 450 668 L 460 668 L 461 669 L 504 668 L 525 663 L 531 663 L 533 661 L 537 661 L 550 656 L 554 656 L 568 649 L 571 649 L 594 636 L 598 635 L 616 622 L 623 625 L 627 630 Q 629 629 628 632 L 636 638 Q 638 637 637 640 L 641 642 Q 643 641 642 644 L 644 644 L 644 663 L 646 671 Q 652 685 664 694 Q 666 693 665 696 L 667 696 L 669 699 L 672 701 L 674 705 L 677 707 Q 676 709 679 708 L 679 710 L 681 710 L 681 712 L 684 714 Q 683 716 686 715 L 686 717 L 688 717 L 688 719 L 690 719 L 724 753 Q 723 755 726 754 L 726 756 L 728 756 L 750 778 Q 752 777 751 780 L 781 808 Q 783 807 782 810 L 797 822 L 806 827 L 817 831 L 831 831 L 832 832 L 833 831 L 844 831 L 859 824 Q 862 825 861 822 L 866 819 L 869 817 L 879 803 Q 878 798 881 797 L 881 788 L 882 787 L 882 777 L 879 763 Q 875 752 867 746 L 865 743 L 863 741 L 860 737 L 859 737 L 830 708 Q 827 709 828 706 L 826 706 L 825 703 Q 822 704 823 701 L 821 701 L 821 700 L 812 692 L 811 689 Q 808 690 809 687 L 807 687 L 807 685 L 805 685 L 804 682 Q 801 683 802 680 L 800 680 L 800 678 L 798 678 L 797 675 Q 794 676 795 673 L 793 673 L 793 671 L 791 671 L 790 668 Q 787 669 788 666 L 786 666 L 786 664 L 784 664 L 784 662 L 779 659 Q 780 656 778 657 L 760 640 L 760 638 L 759 638 L 726 606 L 713 601 L 692 601 L 691 602 L 685 601 L 678 594 Q 675 595 676 592 L 660 579 L 660 575 L 676 552 L 690 521 L 695 505 L 695 501 L 697 498 L 697 492 L 700 479 L 701 459 L 702 458 L 700 423 L 697 411 L 697 404 L 695 401 L 693 390 L 686 373 L 686 370 L 664 330 L 641 300 L 640 300 L 631 291 Q 628 292 629 289 L 625 286 Q 622 287 623 284 L 594 263 L 567 249 L 554 244 L 551 244 L 549 242 L 537 240 L 522 235 L 516 235 L 503 232 L 453 232 Z " /><path fill="rgb(64,64,64)" stroke="rgb(64,64,64)" stroke-width="1" opacity="1" d="M 454.5 274 L 491.5 274 Q 496.1 276.9 504.5 276 L 508.5 278 L 519.5 279 L 532.5 283 L 534.5 285 L 540.5 286 L 542.5 288 L 545.5 288 L 579 307 Q 577.9 309.7 580.5 309 L 584 311 Q 582.9 313.7 585.5 313 L 588 314 Q 586.9 316.7 589.5 316 L 593 318 Q 591.9 320.7 594.5 320 L 600 327 L 607 332.5 L 609 335.5 L 628 360.5 L 642 389.5 L 642 393.5 L 644 395.5 L 644 399.5 L 646 403.5 L 646 408.5 L 649 418.5 Q 647.6 429.4 651 435.5 L 651 461.5 L 649 467.5 L 649 476.5 L 646 486.5 L 646 491.5 L 644 494.5 L 644 498.5 L 642 500.5 L 642 504.5 L 630 531 Q 627 529.8 628 533.5 L 609 561 Q 606.3 559.9 607 562.5 L 604 564 L 604 566 L 602 566 L 602 568 L 600 568 Q 601.1 570.7 598.5 570 L 597 573 L 595 573 Q 596.1 575.7 593.5 575 Q 580.3 587.8 563.5 597 L 552.5 603 L 529.5 612 L 501.5 619 L 492.5 619 L 491.5 620 L 455.5 620 L 454.5 619 L 445.5 619 Q 442.6 616.4 436.5 617 L 433.5 615 L 428.5 615 L 400.5 605 L 382.5 596 L 356 577 L 356 575 L 354 575 Q 355.1 572.3 352.5 573 L 347 566 L 340 560.5 L 338 557.5 L 333 552.5 L 333 550 Q 330.3 551.1 331 548.5 L 322 536.5 L 312 518.5 L 312 515.5 L 308 509.5 L 308 506.5 L 303 494.5 L 303 489.5 L 301 486.5 L 301 480.5 L 298 468.5 L 298 423.5 L 301 412.5 L 301 407.5 Q 303.8 405.8 303 400.5 L 305 398.5 L 305 393.5 Q 308 390.5 308 384.5 L 324 353 Q 326.7 354.1 326 351.5 L 329 346 Q 331.7 347.1 331 344.5 L 333 341 Q 335.7 342.1 335 339.5 L 338 335 Q 340.7 336.1 340 333.5 L 345 327 Q 347.7 328.1 347 325.5 L 359 316 Q 357.9 313.3 360.5 314 L 368 309 Q 366.9 306.3 369.5 307 L 387.5 295 L 408.5 285 L 412.5 285 L 420.5 281 L 424.5 281 L 440.5 276 L 447.5 276 L 454.5 274 Z M 458 276 L 457 277 L 450 277 L 438 280 L 433 280 L 410 287 L 385 299 L 368 311 Q 365 310 366 313 L 355 321 Q 328 345 312 381 L 303 409 L 300 425 L 300 437 L 299 438 L 300 469 L 303 481 L 303 486 L 308 504 Q 320 535 341 559 L 358 575 L 373 587 L 397 601 L 430 613 L 457 618 L 493 618 Q 494 615 501 617 L 535 608 Q 570 595 595 572 Q 618 551 633 521 L 644 491 L 649 462 L 648 428 L 642 397 L 630 369 L 616 348 Q 617 345 614 346 L 607 336 Q 580 305 540 288 L 515 280 L 492 277 L 491 276 L 458 276 Z " /><path fill="rgb(64,64,64)" stroke="rgb(64,64,64)" stroke-width="1" opacity="1" d="M 462.5 306 L 471.5 307 L 480 312 Q 484.3 316.5 485 325.5 L 482 334.5 L 477.5 339 L 471.5 342 L 453.5 344 L 431.5 351 Q 407.8 362.3 392 381.5 Q 381.3 395.3 375 413.5 L 371 432.5 L 371 441.5 Q 369.2 449.2 363.5 453 L 354.5 457 L 346.5 457 Q 338.2 454.9 334 448.5 L 331 441.5 L 331 425.5 Q 333.7 423.8 332 417.5 L 341 389.5 L 351 371.5 L 364 354 Q 366.7 355.1 366 352.5 L 371 349 Q 369.9 346.3 372.5 347 L 390.5 331 L 415.5 317 L 435.5 310 L 450.5 307 L 461.5 307 L 462.5 306 Z M 452 309 Q 445 312 436 312 L 433 314 L 429 314 L 427 316 L 417 319 L 403 326 L 396 331 L 402 332 L 408 341 L 406 347 L 406 349 Q 403 348 404 351 L 397 356 Q 391 357 390 354 L 387 352 L 385 346 L 387 339 L 387 337 L 374 347 L 371 352 Q 368 351 369 354 L 367 354 L 357 367 Q 358 369 355 368 L 355 371 L 348 381 L 339 401 L 336 415 L 334 418 L 334 427 L 333 428 Q 331 441 336 448 Q 339 454 348 455 Q 358 456 363 451 L 368 445 L 371 421 L 373 418 L 375 408 L 382 393 L 391 380 L 396 376 L 402 369 Q 404 370 403 367 L 405 367 L 405 365 L 431 349 L 452 342 L 468 341 L 477 337 L 482 330 Q 484 320 480 317 L 471 309 L 452 309 Z M 396 333 L 391 335 L 388 341 L 389 351 L 394 354 L 399 353 Q 404 351 405 345 Q 406 340 404 339 L 404 336 Q 401 337 402 334 L 396 333 Z " /><path fill="rgb(23,23,23)" stroke="rgb(23,23,23)" stroke-width="1" opacity="1" d="M 509.5 37 L 515.5 37 L 523.5 39 L 544 53 Q 542.9 55.7 545.5 55 L 566 69 Q 564.9 71.7 567.5 71 L 595.5 90 L 630.5 109 L 652.5 120 L 666.5 125 L 668.5 127 L 709.5 143 L 737.5 151 L 739.5 153 L 743.5 153 L 746.5 155 L 761.5 158 L 764.5 160 L 769.5 160 L 772.5 162 L 784.5 165 L 789.5 165 L 791.5 167 Q 797.5 166 799.5 169 L 818.5 172 L 822.5 174 L 828.5 174 L 833.5 176 L 839.5 176 L 852.5 179 L 859.5 179 L 862.5 181 L 877.5 181 L 881.5 183 L 891.5 183 L 899.5 185 L 916.5 186 L 929 193.5 L 935 202.5 L 937 213.5 L 936 214.5 L 936 449.5 L 935 450.5 L 935 469.5 L 933 478.5 L 933 495.5 L 931 504.5 L 931 513.5 L 923 558.5 Q 920.2 561.2 921 567.5 L 919 570.5 L 917 583.5 L 912 596.5 L 912 600.5 L 895 645.5 L 874.5 686 L 871.5 684 L 863 677 L 863 675 L 861 675 L 861 673 Q 858.3 674.1 859 671.5 L 856 670 L 856 668 L 854 668 L 854 666 Q 851.3 667.1 852 664.5 L 849 663 L 849 661 L 847 661 Q 848.1 658.3 845.5 659 L 828.5 642 L 827 642 Q 828.1 639.3 825.5 640 L 821 633.5 L 833 610.5 L 851 562.5 L 859 532.5 L 859 526.5 L 861 524.5 L 863 508.5 L 866 497.5 L 866 486.5 L 868 482.5 L 868 470.5 L 869 469.5 L 869 459.5 L 870 458.5 L 870 244.5 L 866.5 241 L 860.5 241 L 848.5 238 L 846.5 238 L 836.5 236 L 829.5 236 L 825.5 234 L 819.5 234 L 816.5 232 L 810.5 232 Q 804.8 228.7 795.5 229 L 784.5 225 L 779.5 225 L 771.5 222 L 765.5 222 Q 763.5 219 757.5 220 L 754.5 218 L 739.5 215 L 737.5 213 L 733.5 213 L 721.5 208 L 710.5 206 L 708.5 204 L 695.5 201 L 688.5 197 L 670.5 192 L 668.5 190 L 653.5 185 L 651.5 183 L 648.5 183 L 646.5 181 L 640.5 180 L 638.5 178 L 624.5 173 L 618.5 169 L 578.5 152 L 573.5 148 L 551.5 138 L 533.5 127 L 525.5 124 L 517.5 118 L 511.5 116 L 507.5 117 L 485.5 131 L 449.5 150 L 440.5 153 L 404.5 171 L 389.5 176 L 387.5 178 L 377.5 181 L 352.5 192 L 349.5 192 L 347.5 194 L 344.5 194 L 305.5 208 L 301.5 208 L 288.5 213 L 270.5 218 L 266.5 218 L 263.5 220 L 259.5 220 L 256.5 222 L 251.5 222 L 244.5 225 L 231.5 227 L 228.5 229 L 221.5 229 L 211.5 232 L 206.5 232 L 202.5 234 L 197.5 234 L 193.5 236 L 185.5 236 L 172.5 239 L 164.5 239 Q 162.2 241.7 156.5 241 L 154 243.5 L 154 460.5 L 156 468.5 L 156 479.5 L 158 483.5 L 158 497.5 L 161 509.5 L 161 514.5 L 163 518.5 L 163 524.5 L 165 527.5 L 166 537.5 L 172 554.5 L 172 558.5 L 177 575.5 L 179 577.5 L 179 580.5 L 186 596.5 L 187 602.5 L 198 624.5 L 198 627 Q 201.3 625.7 200 630.5 L 219 665.5 L 228 677.5 L 228 679.5 L 244 702.5 L 268 732 Q 270.7 730.9 270 733.5 L 289 753.5 L 289 755 L 291 755 Q 289.9 757.7 292.5 757 Q 301 767.3 312 774 L 313.5 777 L 322 783 Q 320.9 785.7 323.5 785 L 331 790 Q 329.9 792.7 332.5 792 L 340 797 L 340 799 L 342 799 Q 340.9 801.7 343.5 801 L 349 804 Q 347.9 806.7 350.5 806 L 365.5 818 L 368 818 Q 366.9 820.7 369.5 820 L 403.5 843 L 414.5 848 L 421.5 853 L 424 853 Q 422.9 855.7 425.5 855 L 482.5 885 L 509.5 897 L 513.5 897 L 540.5 885 L 583.5 862 L 586 862 Q 584.8 859 588.5 860 L 633 834 Q 631.8 831 635.5 832 L 644 827 Q 642.9 824.3 645.5 825 L 670 808 Q 668.9 805.3 671.5 806 L 681 799 Q 679.9 796.3 682.5 797 L 693 789 Q 691.9 786.3 694.5 787 L 697 788 L 697 790 L 699 790 Q 697.9 792.7 700.5 792 L 702 795 L 706 797.5 L 706 799 L 708 799 Q 706.9 801.7 709.5 801 L 726.5 818 L 728 818 L 730.5 822 L 733 823.5 L 733 825 L 735 825 L 735 827 L 737 827 Q 735.9 829.7 738.5 829 L 742 834 L 744 834 L 744 836 Q 746.7 834.9 746 837.5 L 749 839 Q 750 844.6 745.5 846 L 742.5 848 L 740 852 L 723 864 Q 724.1 866.7 721.5 866 L 714 871 Q 715.1 873.7 712.5 873 L 685.5 894 L 676 899 Q 677.1 901.7 674.5 901 L 640.5 924 L 611.5 941 L 609 941 Q 610.3 944 606.5 943 L 597 948 Q 598.3 951 594.5 950 L 569.5 964 L 557 969 Q 558.3 972.3 553.5 971 L 526.5 985 L 516.5 988 L 507.5 988 L 496.5 985 L 455.5 964 L 453 964 Q 454.3 961 450.5 962 L 402.5 936 L 392.5 929 L 390 929 Q 391.1 926.3 388.5 927 L 359.5 908 L 357 908 Q 358.1 905.3 355.5 906 L 334 892 Q 335.1 889.3 332.5 890 Q 331.3 886.2 327 887 Q 328.1 884.3 325.5 885 L 297.5 862 L 292 859 Q 293.1 856.3 290.5 857 L 278 847 L 278 845 L 276 845 Q 277.1 842.3 274.5 843 L 268 838 L 268 836 L 266 836 Q 267.1 833.3 264.5 834 L 255 826 L 255 824 L 253 824 Q 254.1 821.3 251.5 822 L 237.5 807 L 236 807 L 236 805 Q 233.3 806.1 234 803.5 L 229 797 L 226 795.5 L 213 780.5 L 210 775 Q 207.3 776.1 208 773.5 L 201 764 Q 198.3 765.1 199 762.5 L 194 755 Q 191.3 756.1 192 753.5 L 171 724.5 L 168 717 Q 165.3 718.1 166 715.5 L 147 683.5 L 122 628.5 L 119 617.5 L 115 609.5 L 112 596.5 L 110 593.5 L 105 572.5 L 103 569.5 L 103 563.5 L 98 547.5 L 98 541.5 L 96 538.5 L 96 529.5 L 93 517.5 L 93 509.5 L 91 502.5 L 91 492.5 L 89 486.5 L 89 467.5 L 88 466.5 L 88 453.5 L 87 452.5 L 87 209.5 Q 89.7 207.2 89 201.5 L 97.5 191 L 101.5 188 L 112.5 185 L 143.5 183 L 149.5 181 L 160.5 181 L 165.5 179 L 190.5 176 L 193.5 174 L 200.5 174 L 204.5 172 L 224.5 169 L 226.5 167 L 232.5 167 L 235.5 165 L 252.5 162 L 255.5 160 L 259.5 160 L 262.5 158 L 274.5 156 L 290.5 150 L 300.5 148 L 302.5 146 L 305.5 146 L 350.5 129 L 379.5 116 L 415.5 97 L 458 71 Q 456.9 68.3 459.5 69 L 497.5 41 L 509.5 37 Z " /><path fill="rgb(23,23,23)" stroke="rgb(23,23,23)" stroke-width="1" opacity="1" d="M 452.5 232 L 502.5 232 L 515.5 235 L 521.5 235 L 536.5 240 L 548.5 242 L 550.5 244 L 553.5 244 L 566.5 249 L 593.5 263 L 623 284 Q 621.9 286.7 624.5 286 L 629 289 Q 627.9 291.7 630.5 291 L 639.5 300 L 641 300 L 664 329.5 L 686 369.5 L 686 372.5 L 693 389.5 L 695 400.5 L 697 403.5 L 697 410.5 L 700 422.5 L 702 457.5 L 701 458.5 L 700 478.5 L 697 491.5 L 697 497.5 L 695 500.5 L 695 504.5 L 690 520.5 L 676 551.5 L 660 574.5 L 660 578.5 L 676 592 Q 674.9 594.7 677.5 594 L 684.5 601 L 690.5 602 L 691.5 601 L 712.5 601 L 725.5 606 L 758.5 638 L 760 638 L 760 639.5 L 777.5 657 Q 779.8 656.3 779 658.5 L 784 662 L 784 664 L 786 664 L 786 666 L 788 666 Q 786.9 668.7 789.5 668 L 791 671 L 793 671 L 793 673 L 795 673 Q 793.9 675.7 796.5 675 L 798 678 L 800 678 L 800 680 L 802 680 Q 800.9 682.7 803.5 682 L 805 685 L 807 685 L 807 687 L 809 687 Q 807.9 689.7 810.5 689 L 812 692 L 821 699.5 L 821 701 L 823 701 Q 821.9 703.7 824.5 703 L 826 706 L 828 706 Q 826.9 708.7 829.5 708 L 858.5 737 L 860 737 L 862.5 741 L 865 742.5 L 867 745.5 Q 875.4 751.6 879 762.5 L 882 776.5 L 882 786.5 L 881 787.5 L 881 796.5 Q 878.4 797.9 879 802.5 L 868.5 817 L 865.5 819 L 861 822 Q 862.3 825 858.5 824 L 843.5 831 L 832.5 831 L 831.5 832 L 830.5 831 L 816.5 831 L 805.5 827 L 796.5 822 L 782 810 Q 783.1 807.3 780.5 808 L 751 779.5 Q 751.8 777.3 749.5 778 L 727.5 756 L 726 756 L 726 754 Q 723.3 755.1 724 752.5 L 689.5 719 L 688 719 L 688 717 L 686 717 L 686 715 Q 683.3 716.1 684 713.5 L 681 712 L 681 710 L 679 710 L 679 708 Q 676.3 709.1 677 706.5 L 674 705 L 671.5 701 L 668.5 699 L 667 696 L 665 696 Q 666.1 693.3 663.5 694 Q 651.7 685.3 646 670.5 L 644 662.5 L 644 644 L 642 644 Q 643.1 641.3 640.5 642 L 637 640 Q 638.1 637.3 635.5 638 L 628 632 Q 629.1 629.3 626.5 630 L 623 625 L 615.5 622 L 597.5 635 L 593.5 636 L 570.5 649 L 567.5 649 L 553.5 656 L 549.5 656 L 536.5 661 L 532.5 661 L 530.5 663 L 524.5 663 L 503.5 668 L 460.5 669 L 459.5 668 L 449.5 668 L 441.5 666 L 434.5 666 L 425.5 663 L 419.5 663 L 417.5 661 Q 407.5 660 400.5 656 L 396.5 656 L 382.5 649 L 379.5 649 L 369.5 643 L 364 642 Q 365.1 639.3 362.5 640 L 354.5 635 L 352 635 Q 353.1 632.3 350.5 633 L 335.5 621 L 333 621 Q 334.1 618.3 331.5 619 L 320 610 Q 321.1 607.3 318.5 608 L 317 605 L 315 605 L 315 603 L 313 603 Q 314.1 600.3 311.5 601 L 310 598 L 308 598 L 308 596 Q 305.3 597.1 306 594.5 L 301 588 Q 298.3 589.1 299 586.5 L 294 579 Q 291.3 580.1 292 577.5 L 271 545.5 L 266 532.5 L 264 530.5 L 264 527.5 L 262 525.5 L 259 513.5 L 257 511.5 L 257 507.5 L 252 491.5 L 252 485.5 L 250 482.5 L 249 458.5 L 248 457.5 L 248 440.5 L 249 439.5 L 249 429.5 L 250 428.5 L 250 417.5 L 252 413.5 L 254 399.5 L 259 381.5 L 264 371.5 L 264 368.5 L 283 333.5 L 299 312 Q 301.7 313.1 301 310.5 L 320.5 290 L 333 281 Q 331.9 278.3 334.5 279 L 341.5 273 L 345 272 Q 343.8 269 347.5 270 L 369.5 256 L 383.5 249 L 394.5 246 L 396.5 244 L 413.5 239 L 417.5 239 L 420.5 237 L 426.5 237 L 429.5 235 L 451.5 233 L 452.5 232 Z M 455 274 L 448 276 L 441 276 L 425 281 L 421 281 L 413 285 L 409 285 L 388 295 L 370 307 Q 367 306 368 309 L 361 314 Q 358 313 359 316 L 347 326 Q 348 328 345 327 L 340 334 Q 341 336 338 335 L 335 340 Q 336 342 333 341 L 331 345 Q 332 347 329 346 L 326 352 Q 327 354 324 353 L 308 385 Q 308 391 305 394 L 305 399 L 303 401 Q 304 406 301 408 L 301 413 L 298 424 L 298 469 L 301 481 L 301 487 L 303 490 L 303 495 L 308 507 L 308 510 L 312 516 L 312 519 L 322 537 L 331 549 Q 330 551 333 550 L 333 553 L 338 558 L 340 561 L 347 566 L 353 573 Q 355 572 354 575 L 356 575 L 356 577 L 383 596 L 401 605 L 429 615 L 434 615 L 437 617 Q 443 616 446 619 L 455 619 L 456 620 L 492 620 L 493 619 L 502 619 L 530 612 L 553 603 L 564 597 Q 580 588 594 575 Q 596 576 595 573 L 597 573 L 599 570 Q 601 571 600 568 L 602 568 L 602 566 L 604 566 L 604 564 L 607 563 Q 606 560 609 561 L 628 534 Q 627 530 630 531 L 642 505 L 642 501 L 644 499 L 644 495 L 646 492 L 646 487 L 649 477 L 649 468 L 651 462 L 651 436 Q 648 429 649 419 L 646 409 L 646 404 L 644 400 L 644 396 L 642 394 L 642 390 L 628 361 L 609 336 L 607 333 L 600 327 L 595 320 Q 592 321 593 318 L 590 316 Q 587 317 588 314 L 586 313 Q 583 314 584 311 L 581 309 Q 578 310 579 307 L 546 288 L 543 288 L 541 286 L 535 285 L 533 283 L 520 279 L 509 278 L 505 276 Q 496 277 492 274 L 455 274 Z " /><path fill="rgb(23,23,23)" stroke="rgb(23,23,23)" stroke-width="1" opacity="1" d="M 451.5 309 L 470.5 309 L 480 316.5 Q 483.5 320.5 482 329.5 L 476.5 337 L 467.5 341 L 451.5 342 L 430.5 349 L 405 365 L 405 367 L 403 367 Q 404.1 369.7 401.5 369 L 396 376 L 391 379.5 L 382 392.5 L 375 407.5 L 373 417.5 L 371 420.5 L 368 444.5 L 362.5 451 Q 357.7 455.7 347.5 455 Q 339.4 453.6 336 447.5 Q 331 440.9 333 427.5 L 334 426.5 L 334 417.5 L 336 414.5 L 339 400.5 L 348 380.5 L 355 370.5 L 355 368 Q 357.7 369.1 357 366.5 L 367 354 L 369 354 Q 367.9 351.3 370.5 352 L 374 347 L 386.5 337 L 387 338.5 L 385 345.5 L 387 351.5 L 389.5 354 Q 391.2 356.8 396.5 356 L 404 350.5 Q 403.3 347.9 406 349 L 406 346.5 L 408 340.5 L 401.5 332 L 396 330.5 L 402.5 326 L 416.5 319 L 426.5 316 L 428.5 314 L 432.5 314 L 435.5 312 Q 445 312 451.5 309 Z " /></svg>